<svg id="SvgjsSvg1292" width="649" height="1133.75" xmlns="http://www.w3.org/2000/svg" version="1.1" xmlns:xlink="http://www.w3.org/1999/xlink" xmlns:svgjs="http://svgjs.com/svgjs"><defs id="SvgjsDefs1293"><marker id="SvgjsMarker1308" markerWidth="16" markerHeight="12" refX="16" refY="6" viewBox="0 0 16 12" orient="auto" markerUnits="userSpaceOnUse" stroke-dasharray="0,0"><path id="SvgjsPath1309" d="M0,2 L14,6 L0,11 L0,2" fill="#323232" stroke="#323232" stroke-width="2"></path></marker><marker id="SvgjsMarker1318" markerWidth="16" markerHeight="12" refX="16" refY="6" viewBox="0 0 16 12" orient="auto" markerUnits="userSpaceOnUse" stroke-dasharray="0,0"><path id="SvgjsPath1319" d="M0,2 L14,6 L0,11 L0,2" fill="#323232" stroke="#323232" stroke-width="2"></path></marker><marker id="SvgjsMarker1436" markerWidth="16" markerHeight="12" refX="16" refY="6" viewBox="0 0 16 12" orient="auto" markerUnits="userSpaceOnUse" stroke-dasharray="0,0"><path id="SvgjsPath1437" d="M0,2 L14,6 L0,11 L0,2" fill="#323232" stroke="#323232" stroke-width="2"></path></marker><marker id="SvgjsMarker1440" markerWidth="16" markerHeight="12" refX="16" refY="6" viewBox="0 0 16 12" orient="auto" markerUnits="userSpaceOnUse" stroke-dasharray="0,0"><path id="SvgjsPath1441" d="M0,2 L14,6 L0,11 L0,2" fill="#323232" stroke="#323232" stroke-width="2"></path></marker><marker id="SvgjsMarker1444" markerWidth="16" markerHeight="12" refX="16" refY="6" viewBox="0 0 16 12" orient="auto" markerUnits="userSpaceOnUse" stroke-dasharray="0,0"><path id="SvgjsPath1445" d="M0,2 L14,6 L0,11 L0,2" fill="#323232" stroke="#323232" stroke-width="2"></path></marker><marker id="SvgjsMarker1448" markerWidth="16" markerHeight="12" refX="16" refY="6" viewBox="0 0 16 12" orient="auto" markerUnits="userSpaceOnUse" stroke-dasharray="0,0"><path id="SvgjsPath1449" d="M0,2 L14,6 L0,11 L0,2" fill="#323232" stroke="#323232" stroke-width="2"></path></marker><marker id="SvgjsMarker1452" markerWidth="16" markerHeight="12" refX="16" refY="6" viewBox="0 0 16 12" orient="auto" markerUnits="userSpaceOnUse" stroke-dasharray="0,0"><path id="SvgjsPath1453" d="M0,2 L14,6 L0,11 L0,2" fill="#323232" stroke="#323232" stroke-width="2"></path></marker><marker id="SvgjsMarker1456" markerWidth="16" markerHeight="12" refX="16" refY="6" viewBox="0 0 16 12" orient="auto" markerUnits="userSpaceOnUse" stroke-dasharray="0,0"><path id="SvgjsPath1457" d="M0,2 L14,6 L0,11 L0,2" fill="#323232" stroke="#323232" stroke-width="2"></path></marker><marker id="SvgjsMarker1460" markerWidth="16" markerHeight="12" refX="16" refY="6" viewBox="0 0 16 12" orient="auto" markerUnits="userSpaceOnUse" stroke-dasharray="0,0"><path id="SvgjsPath1461" d="M0,2 L14,6 L0,11 L0,2" fill="#323232" stroke="#323232" stroke-width="2"></path></marker><marker id="SvgjsMarker1464" markerWidth="16" markerHeight="12" refX="16" refY="6" viewBox="0 0 16 12" orient="auto" markerUnits="userSpaceOnUse" stroke-dasharray="0,0"><path id="SvgjsPath1465" d="M0,2 L14,6 L0,11 L0,2" fill="#323232" stroke="#323232" stroke-width="2"></path></marker><marker id="SvgjsMarker1468" markerWidth="16" markerHeight="12" refX="16" refY="6" viewBox="0 0 16 12" orient="auto" markerUnits="userSpaceOnUse" stroke-dasharray="0,0"><path id="SvgjsPath1469" d="M0,2 L14,6 L0,11 L0,2" fill="#323232" stroke="#323232" stroke-width="2"></path></marker><marker id="SvgjsMarker1472" markerWidth="16" markerHeight="12" refX="16" refY="6" viewBox="0 0 16 12" orient="auto" markerUnits="userSpaceOnUse" stroke-dasharray="0,0"><path id="SvgjsPath1473" d="M0,2 L14,6 L0,11 L0,2" fill="#323232" stroke="#323232" stroke-width="2"></path></marker><marker id="SvgjsMarker1476" markerWidth="16" markerHeight="12" refX="16" refY="6" viewBox="0 0 16 12" orient="auto" markerUnits="userSpaceOnUse" stroke-dasharray="0,0"><path id="SvgjsPath1477" d="M0,2 L14,6 L0,11 L0,2" fill="#323232" stroke="#323232" stroke-width="2"></path></marker><marker id="SvgjsMarker1522" markerWidth="16" markerHeight="12" refX="16" refY="6" viewBox="0 0 16 12" orient="auto" markerUnits="userSpaceOnUse" stroke-dasharray="0,0"><path id="SvgjsPath1523" d="M0,2 L14,6 L0,11 L0,2" fill="#323232" stroke="#323232" stroke-width="2"></path></marker><marker id="SvgjsMarker1526" markerWidth="16" markerHeight="12" refX="16" refY="6" viewBox="0 0 16 12" orient="auto" markerUnits="userSpaceOnUse" stroke-dasharray="0,0"><path id="SvgjsPath1527" d="M0,2 L14,6 L0,11 L0,2" fill="#323232" stroke="#323232" stroke-width="2"></path></marker><marker id="SvgjsMarker1530" markerWidth="16" markerHeight="12" refX="16" refY="6" viewBox="0 0 16 12" orient="auto" markerUnits="userSpaceOnUse" stroke-dasharray="0,0"><path id="SvgjsPath1531" d="M0,2 L14,6 L0,11 L0,2" fill="#323232" stroke="#323232" stroke-width="2"></path></marker><marker id="SvgjsMarker1534" markerWidth="16" markerHeight="12" refX="16" refY="6" viewBox="0 0 16 12" orient="auto" markerUnits="userSpaceOnUse" stroke-dasharray="0,0"><path id="SvgjsPath1535" d="M0,2 L14,6 L0,11 L0,2" fill="#323232" stroke="#323232" stroke-width="2"></path></marker><marker id="SvgjsMarker1538" markerWidth="16" markerHeight="12" refX="16" refY="6" viewBox="0 0 16 12" orient="auto" markerUnits="userSpaceOnUse" stroke-dasharray="0,0"><path id="SvgjsPath1539" d="M0,2 L14,6 L0,11 L0,2" fill="#323232" stroke="#323232" stroke-width="2"></path></marker><marker id="SvgjsMarker1542" markerWidth="16" markerHeight="12" refX="16" refY="6" viewBox="0 0 16 12" orient="auto" markerUnits="userSpaceOnUse" stroke-dasharray="0,0"><path id="SvgjsPath1543" d="M0,2 L14,6 L0,11 L0,2" fill="#323232" stroke="#323232" stroke-width="2"></path></marker><marker id="SvgjsMarker1546" markerWidth="16" markerHeight="12" refX="16" refY="6" viewBox="0 0 16 12" orient="auto" markerUnits="userSpaceOnUse" stroke-dasharray="0,0"><path id="SvgjsPath1547" d="M0,2 L14,6 L0,11 L0,2" fill="#323232" stroke="#323232" stroke-width="2"></path></marker><marker id="SvgjsMarker1550" markerWidth="16" markerHeight="12" refX="16" refY="6" viewBox="0 0 16 12" orient="auto" markerUnits="userSpaceOnUse" stroke-dasharray="0,0"><path id="SvgjsPath1551" d="M0,2 L14,6 L0,11 L0,2" fill="#323232" stroke="#323232" stroke-width="2"></path></marker><marker id="SvgjsMarker1554" markerWidth="16" markerHeight="12" refX="16" refY="6" viewBox="0 0 16 12" orient="auto" markerUnits="userSpaceOnUse" stroke-dasharray="0,0"><path id="SvgjsPath1555" d="M0,2 L14,6 L0,11 L0,2" fill="#323232" stroke="#323232" stroke-width="2"></path></marker><marker id="SvgjsMarker1558" markerWidth="16" markerHeight="12" refX="16" refY="6" viewBox="0 0 16 12" orient="auto" markerUnits="userSpaceOnUse" stroke-dasharray="0,0"><path id="SvgjsPath1559" d="M0,2 L14,6 L0,11 L0,2" fill="#323232" stroke="#323232" stroke-width="2"></path></marker><marker id="SvgjsMarker1562" markerWidth="16" markerHeight="12" refX="16" refY="6" viewBox="0 0 16 12" orient="auto" markerUnits="userSpaceOnUse" stroke-dasharray="0,0"><path id="SvgjsPath1563" d="M0,2 L14,6 L0,11 L0,2" fill="#323232" stroke="#323232" stroke-width="2"></path></marker><marker id="SvgjsMarker1566" markerWidth="16" markerHeight="12" refX="16" refY="6" viewBox="0 0 16 12" orient="auto" markerUnits="userSpaceOnUse" stroke-dasharray="0,0"><path id="SvgjsPath1567" d="M0,2 L14,6 L0,11 L0,2" fill="#323232" stroke="#323232" stroke-width="2"></path></marker><marker id="SvgjsMarker1570" markerWidth="16" markerHeight="12" refX="16" refY="6" viewBox="0 0 16 12" orient="auto" markerUnits="userSpaceOnUse" stroke-dasharray="0,0"><path id="SvgjsPath1571" d="M0,2 L14,6 L0,11 L0,2" fill="#323232" stroke="#323232" stroke-width="2"></path></marker></defs><g id="SvgjsG1294" transform="translate(25.5,106)"><path id="SvgjsPath1295" d="M 0 0L 152 0L 152 46L 0 46Z" stroke="rgba(50,50,50,1)" stroke-width="2" fill-opacity="1" fill="#e76f51"></path><g id="SvgjsG1296"><text id="SvgjsText1297" font-family="微软雅黑" text-anchor="middle" font-size="13px" width="132px" fill="#323232" font-weight="400" align="middle" lineHeight="125%" anchor="middle" family="微软雅黑" size="13px" weight="400" font-style="" opacity="1" y="12.875" transform="rotate(0)"><tspan id="SvgjsTspan1298" dy="16" x="76"><tspan id="SvgjsTspan1299" style="text-decoration:;">BeforeNewEndpoint</tspan></tspan></text></g></g><g id="SvgjsG1300" transform="translate(25.5,184)"><path id="SvgjsPath1301" d="M 0 0L 152 0L 152 46L 0 46Z" stroke="rgba(50,50,50,1)" stroke-width="2" fill-opacity="1" fill="#e76f51"></path><g id="SvgjsG1302"><text id="SvgjsText1303" font-family="微软雅黑" text-anchor="middle" font-size="13px" width="132px" fill="#323232" font-weight="400" align="middle" lineHeight="125%" anchor="middle" family="微软雅黑" size="13px" weight="400" font-style="" opacity="1" y="12.875" transform="rotate(0)"><tspan id="SvgjsTspan1304" dy="16" x="76"><tspan id="SvgjsTspan1305" style="text-decoration:;">AfterNewEndpoint</tspan></tspan></text></g></g><g id="SvgjsG1306"><path id="SvgjsPath1307" d="M101.5 152L101.5 168L101.5 168L101.5 184" stroke="#323232" stroke-width="2" fill="none" marker-end="url(#SvgjsMarker1308)"></path></g><g id="SvgjsG1310" transform="translate(25.5,257.5)"><path id="SvgjsPath1311" d="M 0 0L 152 0L 152 46L 0 46Z" stroke="rgba(50,50,50,1)" stroke-width="2" fill-opacity="1" fill="#fec99a"></path><g id="SvgjsG1312"><text id="SvgjsText1313" font-family="微软雅黑" text-anchor="middle" font-size="13px" width="132px" fill="#323232" font-weight="400" align="middle" lineHeight="125%" anchor="middle" family="微软雅黑" size="13px" weight="400" font-style="" opacity="1" y="12.875" transform="rotate(0)"><tspan id="SvgjsTspan1314" dy="16" x="76"><tspan id="SvgjsTspan1315" style="text-decoration:;">AfterRegRouter</tspan></tspan></text></g></g><g id="SvgjsG1316"><path id="SvgjsPath1317" d="M101.5 230L101.5 243.75L101.5 243.75L101.5 257.5" stroke="#323232" stroke-width="2" fill="none" marker-end="url(#SvgjsMarker1318)"></path></g><g id="SvgjsG1320" transform="translate(25.5,330.75)"><path id="SvgjsPath1321" d="M 0 0L 152 0L 152 46L 0 46Z" stroke="rgba(50,50,50,1)" stroke-width="2" fill-opacity="1" fill="#d8e2dc"></path><g id="SvgjsG1322"><text id="SvgjsText1323" font-family="微软雅黑" text-anchor="middle" font-size="13px" width="132px" fill="#323232" font-weight="400" align="middle" lineHeight="125%" anchor="middle" family="微软雅黑" size="13px" weight="400" font-style="" opacity="1" y="12.875" transform="rotate(0)"><tspan id="SvgjsTspan1324" dy="16" x="76"><tspan id="SvgjsTspan1325" style="text-decoration:;">AfterListen</tspan></tspan></text></g></g><g id="SvgjsG1326" transform="translate(372,251.25)"><path id="SvgjsPath1327" d="M 0 0L 152 0L 152 46L 0 46Z" stroke="rgba(50,50,50,1)" stroke-width="2" fill-opacity="1" fill="#a8dadc"></path><g id="SvgjsG1328"><text id="SvgjsText1329" font-family="微软雅黑" text-anchor="middle" font-size="13px" width="132px" fill="#323232" font-weight="400" align="middle" lineHeight="125%" anchor="middle" family="微软雅黑" size="13px" weight="400" font-style="" opacity="1" y="12.875" transform="rotate(0)"><tspan id="SvgjsTspan1330" dy="16" x="76"><tspan id="SvgjsTspan1331" style="text-decoration:;">BeforeDial</tspan></tspan></text></g></g><g id="SvgjsG1332" transform="translate(277,330.75)"><path id="SvgjsPath1333" d="M 0 0L 152 0L 152 46L 0 46Z" stroke="rgba(50,50,50,1)" stroke-width="2" fill-opacity="1" fill="#a8dadc"></path><g id="SvgjsG1334"><text id="SvgjsText1335" font-family="微软雅黑" text-anchor="middle" font-size="13px" width="132px" fill="#323232" font-weight="400" align="middle" lineHeight="125%" anchor="middle" family="微软雅黑" size="13px" weight="400" font-style="" opacity="1" y="12.875" transform="rotate(0)"><tspan id="SvgjsTspan1336" dy="16" x="76"><tspan id="SvgjsTspan1337" style="text-decoration:;">AfterDial</tspan></tspan></text></g></g><g id="SvgjsG1338" transform="translate(472,330.75)"><path id="SvgjsPath1339" d="M 0 0L 152 0L 152 46L 0 46Z" stroke="rgba(50,50,50,1)" stroke-width="2" fill-opacity="1" fill="#a8dadc"></path><g id="SvgjsG1340"><text id="SvgjsText1341" font-family="微软雅黑" text-anchor="middle" font-size="13px" width="132px" fill="#323232" font-weight="400" align="middle" lineHeight="125%" anchor="middle" family="微软雅黑" size="13px" weight="400" font-style="" opacity="1" y="12.875" transform="rotate(0)"><tspan id="SvgjsTspan1342" dy="16" x="76"><tspan id="SvgjsTspan1343" style="text-decoration:;">AfterDialFail</tspan></tspan></text></g></g><g id="SvgjsG1344" transform="translate(25.5,405.5)"><path id="SvgjsPath1345" d="M 0 0L 152 0L 152 46L 0 46Z" stroke="rgba(50,50,50,1)" stroke-width="2" fill-opacity="1" fill="#e8e8e4"></path><g id="SvgjsG1346"><text id="SvgjsText1347" font-family="微软雅黑" text-anchor="middle" font-size="13px" width="132px" fill="#323232" font-weight="400" align="middle" lineHeight="125%" anchor="middle" family="微软雅黑" size="13px" weight="400" font-style="" opacity="1" y="12.875" transform="rotate(0)"><tspan id="SvgjsTspan1348" dy="16" x="76"><tspan id="SvgjsTspan1349" style="text-decoration:;">AfterAccept</tspan></tspan></text></g></g><g id="SvgjsG1350" transform="translate(376,502.5)"><path id="SvgjsPath1351" d="M 0 0L 152 0L 152 46L 0 46Z" stroke="rgba(50,50,50,1)" stroke-width="2" fill-opacity="1" fill="#f1faee"></path><g id="SvgjsG1352"><text id="SvgjsText1353" font-family="微软雅黑" text-anchor="middle" font-size="13px" width="132px" fill="#323232" font-weight="400" align="middle" lineHeight="125%" anchor="middle" family="微软雅黑" size="13px" weight="400" font-style="" opacity="1" y="12.875" transform="rotate(0)"><tspan id="SvgjsTspan1354" dy="16" x="76"><tspan id="SvgjsTspan1355" style="text-decoration:;">BeforeWriteCall</tspan></tspan></text></g></g><g id="SvgjsG1356" transform="translate(376,577.75)"><path id="SvgjsPath1357" d="M 0 0L 152 0L 152 46L 0 46Z" stroke="rgba(50,50,50,1)" stroke-width="2" fill-opacity="1" fill="#f1faee"></path><g id="SvgjsG1358"><text id="SvgjsText1359" font-family="微软雅黑" text-anchor="middle" font-size="13px" width="132px" fill="#323232" font-weight="400" align="middle" lineHeight="125%" anchor="middle" family="微软雅黑" size="13px" weight="400" font-style="" opacity="1" y="12.875" transform="rotate(0)"><tspan id="SvgjsTspan1360" dy="16" x="76"><tspan id="SvgjsTspan1361" style="text-decoration:;">AfterWriteCall</tspan></tspan></text></g></g><g id="SvgjsG1362" transform="translate(25.5,761.5)"><path id="SvgjsPath1363" d="M 0 0L 152 0L 152 46L 0 46Z" stroke="rgba(50,50,50,1)" stroke-width="2" fill-opacity="1" fill="#e9c56a"></path><g id="SvgjsG1364"><text id="SvgjsText1365" font-family="微软雅黑" text-anchor="middle" font-size="13px" width="132px" fill="#323232" font-weight="400" align="middle" lineHeight="125%" anchor="middle" family="微软雅黑" size="13px" weight="400" font-style="" opacity="1" y="12.875" transform="rotate(0)"><tspan id="SvgjsTspan1366" dy="16" x="76"><tspan id="SvgjsTspan1367" style="text-decoration:;">BeforeWriteReply</tspan></tspan></text></g></g><g id="SvgjsG1368" transform="translate(25.5,830)"><path id="SvgjsPath1369" d="M 0 0L 152 0L 152 46L 0 46Z" stroke="rgba(50,50,50,1)" stroke-width="2" fill-opacity="1" fill="#e9c56a"></path><g id="SvgjsG1370"><text id="SvgjsText1371" font-family="微软雅黑" text-anchor="middle" font-size="13px" width="132px" fill="#323232" font-weight="400" align="middle" lineHeight="125%" anchor="middle" family="微软雅黑" size="13px" weight="400" font-style="" opacity="1" y="12.875" transform="rotate(0)"><tspan id="SvgjsTspan1372" dy="16" x="76"><tspan id="SvgjsTspan1373" style="text-decoration:;">AfterWriteReply</tspan></tspan></text></g></g><g id="SvgjsG1374" transform="translate(25.5,477)"><path id="SvgjsPath1375" d="M 0 0L 152 0L 152 46L 0 46Z" stroke="rgba(50,50,50,1)" stroke-width="2" fill-opacity="1" fill="#ece4db"></path><g id="SvgjsG1376"><text id="SvgjsText1377" font-family="微软雅黑" text-anchor="middle" font-size="13px" width="132px" fill="#323232" font-weight="400" align="middle" lineHeight="125%" anchor="middle" family="微软雅黑" size="13px" weight="400" font-style="" opacity="1" y="12.875" transform="rotate(0)"><tspan id="SvgjsTspan1378" dy="16" x="76"><tspan id="SvgjsTspan1379" style="text-decoration:;">BeforeReadHeader</tspan></tspan></text></g></g><g id="SvgjsG1380" transform="translate(25.5,548.5)"><path id="SvgjsPath1381" d="M 0 0L 152 0L 152 46L 0 46Z" stroke="rgba(50,50,50,1)" stroke-width="2" fill-opacity="1" fill="#fcd5ce"></path><g id="SvgjsG1382"><text id="SvgjsText1383" font-family="微软雅黑" text-anchor="middle" font-size="13px" width="132px" fill="#323232" font-weight="400" align="middle" lineHeight="125%" anchor="middle" family="微软雅黑" size="13px" weight="400" font-style="" opacity="1" y="12.875" transform="rotate(0)"><tspan id="SvgjsTspan1384" dy="16" x="76"><tspan id="SvgjsTspan1385" style="text-decoration:;">AfterReadCallHeader</tspan></tspan></text></g></g><g id="SvgjsG1386" transform="translate(25.5,620.5)"><path id="SvgjsPath1387" d="M 0 0L 152 0L 152 46L 0 46Z" stroke="rgba(50,50,50,1)" stroke-width="2" fill-opacity="1" fill="#fcd5ce"></path><g id="SvgjsG1388"><text id="SvgjsText1389" font-family="微软雅黑" text-anchor="middle" font-size="13px" width="132px" fill="#323232" font-weight="400" align="middle" lineHeight="125%" anchor="middle" family="微软雅黑" size="13px" weight="400" font-style="" opacity="1" y="12.875" transform="rotate(0)"><tspan id="SvgjsTspan1390" dy="16" x="76"><tspan id="SvgjsTspan1391" style="text-decoration:;">BeforeReadCallBody</tspan></tspan></text></g></g><g id="SvgjsG1392" transform="translate(25.5,692)"><path id="SvgjsPath1393" d="M 0 0L 152 0L 152 46L 0 46Z" stroke="rgba(50,50,50,1)" stroke-width="2" fill-opacity="1" fill="#fcd5ce"></path><g id="SvgjsG1394"><text id="SvgjsText1395" font-family="微软雅黑" text-anchor="middle" font-size="13px" width="132px" fill="#323232" font-weight="400" align="middle" lineHeight="125%" anchor="middle" family="微软雅黑" size="13px" weight="400" font-style="" opacity="1" y="12.875" transform="rotate(0)"><tspan id="SvgjsTspan1396" dy="16" x="76"><tspan id="SvgjsTspan1397" style="text-decoration:;">AfterReadCallBody</tspan></tspan></text></g></g><g id="SvgjsG1398" transform="translate(376,666.5)"><path id="SvgjsPath1399" d="M 0 0L 152 0L 152 46L 0 46Z" stroke="rgba(50,50,50,1)" stroke-width="2" fill-opacity="1" fill="#ece4db"></path><g id="SvgjsG1400"><text id="SvgjsText1401" font-family="微软雅黑" text-anchor="middle" font-size="13px" width="132px" fill="#323232" font-weight="400" align="middle" lineHeight="125%" anchor="middle" family="微软雅黑" size="13px" weight="400" font-style="" opacity="1" y="12.875" transform="rotate(0)"><tspan id="SvgjsTspan1402" dy="16" x="76"><tspan id="SvgjsTspan1403" style="text-decoration:;">AfterReadReplyHeader</tspan></tspan></text></g></g><g id="SvgjsG1404" transform="translate(376,745)"><path id="SvgjsPath1405" d="M 0 0L 152 0L 152 46L 0 46Z" stroke="rgba(50,50,50,1)" stroke-width="2" fill-opacity="1" fill="#ece4db"></path><g id="SvgjsG1406"><text id="SvgjsText1407" font-family="微软雅黑" text-anchor="middle" font-size="13px" width="132px" fill="#323232" font-weight="400" align="middle" lineHeight="125%" anchor="middle" family="微软雅黑" size="13px" weight="400" font-style="" opacity="1" y="12.875" transform="rotate(0)"><tspan id="SvgjsTspan1408" dy="16" x="76"><tspan id="SvgjsTspan1409" style="text-decoration:;">BeforeReadReplyBody</tspan></tspan></text></g></g><g id="SvgjsG1410" transform="translate(376,823.5)"><path id="SvgjsPath1411" d="M 0 0L 152 0L 152 46L 0 46Z" stroke="rgba(50,50,50,1)" stroke-width="2" fill-opacity="1" fill="#ece4db"></path><g id="SvgjsG1412"><text id="SvgjsText1413" font-family="微软雅黑" text-anchor="middle" font-size="13px" width="132px" fill="#323232" font-weight="400" align="middle" lineHeight="125%" anchor="middle" family="微软雅黑" size="13px" weight="400" font-style="" opacity="1" y="12.875" transform="rotate(0)"><tspan id="SvgjsTspan1414" dy="16" x="76"><tspan id="SvgjsTspan1415" style="text-decoration:;">AfterReadReplyBody</tspan></tspan></text></g></g><g id="SvgjsG1416" transform="translate(25.5,899.5)"><path id="SvgjsPath1417" d="M 0 0L 152 0L 152 46L 0 46Z" stroke="rgba(50,50,50,1)" stroke-width="2" fill-opacity="1" fill="#e8e8e4"></path><g id="SvgjsG1418"><text id="SvgjsText1419" font-family="微软雅黑" text-anchor="middle" font-size="13px" width="132px" fill="#323232" font-weight="400" align="middle" lineHeight="125%" anchor="middle" family="微软雅黑" size="13px" weight="400" font-style="" opacity="1" y="12.875" transform="rotate(0)"><tspan id="SvgjsTspan1420" dy="16" x="76"><tspan id="SvgjsTspan1421" style="text-decoration:;">AfterDisconnect</tspan></tspan></text></g></g><g id="SvgjsG1422" transform="translate(25.5,976.5)"><path id="SvgjsPath1423" d="M 0 0L 152 0L 152 46L 0 46Z" stroke="rgba(50,50,50,1)" stroke-width="2" fill-opacity="1" fill="#e76f51"></path><g id="SvgjsG1424"><text id="SvgjsText1425" font-family="微软雅黑" text-anchor="middle" font-size="13px" width="132px" fill="#323232" font-weight="400" align="middle" lineHeight="125%" anchor="middle" family="微软雅黑" size="13px" weight="400" font-style="" opacity="1" y="12.875" transform="rotate(0)"><tspan id="SvgjsTspan1426" dy="16" x="76"><tspan id="SvgjsTspan1427" style="text-decoration:;">BeforeCloseEndpoint</tspan></tspan></text></g></g><g id="SvgjsG1428" transform="translate(25.5,1046.5)"><path id="SvgjsPath1429" d="M 0 0L 152 0L 152 46L 0 46Z" stroke="rgba(50,50,50,1)" stroke-width="2" fill-opacity="1" fill="#e76f51"></path><g id="SvgjsG1430"><text id="SvgjsText1431" font-family="微软雅黑" text-anchor="middle" font-size="13px" width="132px" fill="#323232" font-weight="400" align="middle" lineHeight="125%" anchor="middle" family="微软雅黑" size="13px" weight="400" font-style="" opacity="1" y="12.875" transform="rotate(0)"><tspan id="SvgjsTspan1432" dy="16" x="76"><tspan id="SvgjsTspan1433" style="text-decoration:;">AfterCloseEndpoint</tspan></tspan></text></g></g><g id="SvgjsG1434"><path id="SvgjsPath1435" d="M101.5 303.5L101.5 317.125L101.5 317.125L101.5 330.75" stroke="#323232" stroke-width="2" fill="none" marker-end="url(#SvgjsMarker1436)"></path></g><g id="SvgjsG1438"><path id="SvgjsPath1439" d="M101.5 376.75L101.5 391.125L101.5 391.125L101.5 405.5" stroke="#323232" stroke-width="2" fill="none" marker-end="url(#SvgjsMarker1440)"></path></g><g id="SvgjsG1442"><path id="SvgjsPath1443" d="M101.5 451.5L101.5 464.25L101.5 464.25L101.5 477" stroke="#323232" stroke-width="2" fill="none" marker-end="url(#SvgjsMarker1444)"></path></g><g id="SvgjsG1446"><path id="SvgjsPath1447" d="M101.5 523L101.5 535.75L101.5 535.75L101.5 548.5" stroke="#323232" stroke-width="2" fill="none" marker-end="url(#SvgjsMarker1448)"></path></g><g id="SvgjsG1450"><path id="SvgjsPath1451" d="M101.5 594.5L101.5 607.5L101.5 607.5L101.5 620.5" stroke="#323232" stroke-width="2" fill="none" marker-end="url(#SvgjsMarker1452)"></path></g><g id="SvgjsG1454"><path id="SvgjsPath1455" d="M101.5 666.5L101.5 679.25L101.5 679.25L101.5 692" stroke="#323232" stroke-width="2" fill="none" marker-end="url(#SvgjsMarker1456)"></path></g><g id="SvgjsG1458"><path id="SvgjsPath1459" d="M101.5 738L101.5 749.75L101.5 749.75L101.5 761.5" stroke="#323232" stroke-width="2" fill="none" marker-end="url(#SvgjsMarker1460)"></path></g><g id="SvgjsG1462"><path id="SvgjsPath1463" d="M101.5 807.5L101.5 818.75L101.5 818.75L101.5 830" stroke="#323232" stroke-width="2" fill="none" marker-end="url(#SvgjsMarker1464)"></path></g><g id="SvgjsG1466"><path id="SvgjsPath1467" d="M101.5 876L101.5 887.75L101.5 887.75L101.5 899.5" stroke="#323232" stroke-width="2" fill="none" marker-end="url(#SvgjsMarker1468)"></path></g><g id="SvgjsG1470"><path id="SvgjsPath1471" d="M101.5 945.5L101.5 961L101.5 961L101.5 976.5" stroke="#323232" stroke-width="2" fill="none" marker-end="url(#SvgjsMarker1472)"></path></g><g id="SvgjsG1474"><path id="SvgjsPath1475" d="M101.5 1022.5L101.5 1034.5L101.5 1034.5L101.5 1046.5" stroke="#323232" stroke-width="2" fill="none" marker-end="url(#SvgjsMarker1476)"></path></g><g id="SvgjsG1478" transform="translate(25,25)"><path id="SvgjsPath1479" d="M 18.36 53.9C -15.3 38.5 6.12 26.95 13.77 23.099999999999998C 10.71 3.85 48.96 0 64.25999999999999 7.7C 76.5 -3.85 114.75 0 114.75 11.549999999999999C 145.35 7.7 157.59 23.099999999999998 145.35 42.35C 156.06 57.75 145.35 77 110.16 69.3C 102.51 79.31 71.91 79.31 64.25999999999999 69.3C 48.96 77 18.36 73.14999999999999 18.36 53.9Z" stroke="rgba(50,50,50,1)" stroke-width="2" fill-opacity="1" fill="#ffffff"></path><g id="SvgjsG1480"><text id="SvgjsText1481" font-family="微软雅黑" text-anchor="middle" font-size="13px" width="133px" fill="#323232" font-weight="400" align="middle" lineHeight="125%" anchor="middle" family="微软雅黑" size="13px" weight="400" font-style="" opacity="1" y="28.375" transform="rotate(0)"><tspan id="SvgjsTspan1482" dy="16" x="76.5"><tspan id="SvgjsTspan1483" style="text-decoration:;">接收call请求的服务端</tspan></tspan></text></g></g><g id="SvgjsG1484" transform="translate(372,102)"><path id="SvgjsPath1485" d="M 0 0L 152 0L 152 46L 0 46Z" stroke="rgba(50,50,50,1)" stroke-width="2" fill-opacity="1" fill="#e76f51"></path><g id="SvgjsG1486"><text id="SvgjsText1487" font-family="微软雅黑" text-anchor="middle" font-size="13px" width="132px" fill="#323232" font-weight="400" align="middle" lineHeight="125%" anchor="middle" family="微软雅黑" size="13px" weight="400" font-style="" opacity="1" y="12.875" transform="rotate(0)"><tspan id="SvgjsTspan1488" dy="16" x="76"><tspan id="SvgjsTspan1489" style="text-decoration:;">BeforeNewEndpoint</tspan></tspan></text></g></g><g id="SvgjsG1490" transform="translate(372,180)"><path id="SvgjsPath1491" d="M 0 0L 152 0L 152 46L 0 46Z" stroke="rgba(50,50,50,1)" stroke-width="2" fill-opacity="1" fill="#e76f51"></path><g id="SvgjsG1492"><text id="SvgjsText1493" font-family="微软雅黑" text-anchor="middle" font-size="13px" width="132px" fill="#323232" font-weight="400" align="middle" lineHeight="125%" anchor="middle" family="微软雅黑" size="13px" weight="400" font-style="" opacity="1" y="12.875" transform="rotate(0)"><tspan id="SvgjsTspan1494" dy="16" x="76"><tspan id="SvgjsTspan1495" style="text-decoration:;">AfterNewEndpoint</tspan></tspan></text></g></g><g id="SvgjsG1496" transform="translate(376,414.5)"><path id="SvgjsPath1497" d="M 0 0L 152 0L 152 46L 0 46Z" stroke="rgba(50,50,50,1)" stroke-width="2" fill-opacity="1" fill="#ece4db"></path><g id="SvgjsG1498"><text id="SvgjsText1499" font-family="微软雅黑" text-anchor="middle" font-size="13px" width="132px" fill="#323232" font-weight="400" align="middle" lineHeight="125%" anchor="middle" family="微软雅黑" size="13px" weight="400" font-style="" opacity="1" y="12.875" transform="rotate(0)"><tspan id="SvgjsTspan1500" dy="16" x="76"><tspan id="SvgjsTspan1501" style="text-decoration:;">BeforeReadHeader</tspan></tspan></text></g></g><g id="SvgjsG1502" transform="translate(376,912.25)"><path id="SvgjsPath1503" d="M 0 0L 152 0L 152 46L 0 46Z" stroke="rgba(50,50,50,1)" stroke-width="2" fill-opacity="1" fill="#e8e8e4"></path><g id="SvgjsG1504"><text id="SvgjsText1505" font-family="微软雅黑" text-anchor="middle" font-size="13px" width="132px" fill="#323232" font-weight="400" align="middle" lineHeight="125%" anchor="middle" family="微软雅黑" size="13px" weight="400" font-style="" opacity="1" y="12.875" transform="rotate(0)"><tspan id="SvgjsTspan1506" dy="16" x="76"><tspan id="SvgjsTspan1507" style="text-decoration:;">AfterDisconnect</tspan></tspan></text></g></g><g id="SvgjsG1508" transform="translate(376,987.5)"><path id="SvgjsPath1509" d="M 0 0L 152 0L 152 46L 0 46Z" stroke="rgba(50,50,50,1)" stroke-width="2" fill-opacity="1" fill="#e76f51"></path><g id="SvgjsG1510"><text id="SvgjsText1511" font-family="微软雅黑" text-anchor="middle" font-size="13px" width="132px" fill="#323232" font-weight="400" align="middle" lineHeight="125%" anchor="middle" family="微软雅黑" size="13px" weight="400" font-style="" opacity="1" y="12.875" transform="rotate(0)"><tspan id="SvgjsTspan1512" dy="16" x="76"><tspan id="SvgjsTspan1513" style="text-decoration:;">BeforeCloseEndpoint</tspan></tspan></text></g></g><g id="SvgjsG1514" transform="translate(376,1062.75)"><path id="SvgjsPath1515" d="M 0 0L 152 0L 152 46L 0 46Z" stroke="rgba(50,50,50,1)" stroke-width="2" fill-opacity="1" fill="#e76f51"></path><g id="SvgjsG1516"><text id="SvgjsText1517" font-family="微软雅黑" text-anchor="middle" font-size="13px" width="132px" fill="#323232" font-weight="400" align="middle" lineHeight="125%" anchor="middle" family="微软雅黑" size="13px" weight="400" font-style="" opacity="1" y="12.875" transform="rotate(0)"><tspan id="SvgjsTspan1518" dy="16" x="76"><tspan id="SvgjsTspan1519" style="text-decoration:;">AfterCloseEndpoint</tspan></tspan></text></g></g><g id="SvgjsG1520"><path id="SvgjsPath1521" d="M452 958.25L452 972.875L452 972.875L452 987.5" stroke="#323232" stroke-width="2" fill="none" marker-end="url(#SvgjsMarker1522)"></path></g><g id="SvgjsG1524"><path id="SvgjsPath1525" d="M452 1033.5L452 1048.125L452 1048.125L452 1062.75" stroke="#323232" stroke-width="2" fill="none" marker-end="url(#SvgjsMarker1526)"></path></g><g id="SvgjsG1528"><path id="SvgjsPath1529" d="M448 148L448 164L448 164L448 180" stroke="#323232" stroke-width="2" fill="none" marker-end="url(#SvgjsMarker1530)"></path></g><g id="SvgjsG1532"><path id="SvgjsPath1533" d="M448 226L448 238.625L448 238.625L448 251.25" stroke="#323232" stroke-width="2" fill="none" marker-end="url(#SvgjsMarker1534)"></path></g><g id="SvgjsG1536"><path id="SvgjsPath1537" d="M448 297.25L448 314L353 314L353 330.75" stroke="#323232" stroke-width="2" fill="none" marker-end="url(#SvgjsMarker1538)"></path></g><g id="SvgjsG1540"><path id="SvgjsPath1541" d="M448 297.25L448 314L548 314L548 330.75" stroke="#323232" stroke-width="2" fill="none" marker-end="url(#SvgjsMarker1542)"></path></g><g id="SvgjsG1544"><path id="SvgjsPath1545" d="M353 376.75L353 395.625L452 395.625L452 414.5" stroke="#323232" stroke-width="2" fill="none" marker-end="url(#SvgjsMarker1546)"></path></g><g id="SvgjsG1548"><path id="SvgjsPath1549" d="M452 460.5L452 481.5L452 481.5L452 502.5" stroke="#323232" stroke-width="2" fill="none" marker-end="url(#SvgjsMarker1550)"></path></g><g id="SvgjsG1552"><path id="SvgjsPath1553" d="M452 548.5L452 563.125L452 563.125L452 577.75" stroke="#323232" stroke-width="2" fill="none" marker-end="url(#SvgjsMarker1554)"></path></g><g id="SvgjsG1556"><path id="SvgjsPath1557" d="M452 623.75L452 645.125L452 645.125L452 666.5" stroke="#323232" stroke-width="2" fill="none" marker-end="url(#SvgjsMarker1558)"></path></g><g id="SvgjsG1560"><path id="SvgjsPath1561" d="M452 712.5L452 728.75L452 728.75L452 745" stroke="#323232" stroke-width="2" fill="none" marker-end="url(#SvgjsMarker1562)"></path></g><g id="SvgjsG1564"><path id="SvgjsPath1565" d="M452 791L452 807.25L452 807.25L452 823.5" stroke="#323232" stroke-width="2" fill="none" marker-end="url(#SvgjsMarker1566)"></path></g><g id="SvgjsG1568"><path id="SvgjsPath1569" d="M452 869.5L452 890.875L452 890.875L452 912.25" stroke="#323232" stroke-width="2" fill="none" marker-end="url(#SvgjsMarker1570)"></path></g><g id="SvgjsG1572" transform="translate(367,25)"><path id="SvgjsPath1573" d="M 18.36 53.9C -15.3 38.5 6.12 26.95 13.77 23.099999999999998C 10.71 3.85 48.96 0 64.25999999999999 7.7C 76.5 -3.85 114.75 0 114.75 11.549999999999999C 145.35 7.7 157.59 23.099999999999998 145.35 42.35C 156.06 57.75 145.35 77 110.16 69.3C 102.51 79.31 71.91 79.31 64.25999999999999 69.3C 48.96 77 18.36 73.14999999999999 18.36 53.9Z" stroke="rgba(50,50,50,1)" stroke-width="2" fill-opacity="1" fill="#ffffff"></path><g id="SvgjsG1574"><text id="SvgjsText1575" font-family="微软雅黑" text-anchor="middle" font-size="13px" width="133px" fill="#323232" font-weight="400" align="middle" lineHeight="125%" anchor="middle" family="微软雅黑" size="13px" weight="400" font-style="" opacity="1" y="28.375" transform="rotate(0)"><tspan id="SvgjsTspan1576" dy="16" x="76.5"><tspan id="SvgjsTspan1577" style="text-decoration:;">发送call请求的客户端</tspan></tspan></text></g></g></svg>