<?xml version="1.0"?>
<svg xmlns="http://www.w3.org/2000/svg" xmlns:xlink="http://www.w3.org/1999/xlink" data-noselect="" viewBox="0 0 800 600" width="1600" height="1200" preserveAspectRatio="none" version="1.1"><defs/> <g id="background" data-noselect=""><rect fill="#FFFFFF" width="800" height="600" data-noselect=""/> <!----></g> <g id="shape_JZfIU9uh3q" transform="translate(307.13218760056,158.73313614600366) rotate(0,92.867812399435,92.867812399435) scale(1,1)" filter="" style="cursor: move; opacity: 1;"><g><svg xmlns="http://www.w3.org/2000/svg" xmlns:xlink="http://www.w3.org/1999/xlink" version="1.1" id="&#x56FE;&#x5C42;_1" x="0px" y="0px" style="enable-background:new 0 0 283.465 283.465;" xml:space="preserve" viewBox="20.506000518798828 34 239.1179962158203 232.16299438476562" width="185.73562479887" height="180.3333061486154" class="style-removed" preserveAspectRatio="none" data-parent="shape_JZfIU9uh3q">
<g>
	<g>
		<defs>
			<path id="SVGID_1_" d="M146.568,34h-94.56c-17.326,0-31.501,14.175-31.501,31.501v23.661v9.318     c14.457-13.907,34.101-22.46,55.745-22.46c1.215,0,2.424,0.027,3.626,0.081l-9.223-4.771l0.017,0.004l0.146-0.02l0.001,0     c0.11-0.015,0.219-0.03,0.329-0.046l0.026-0.003l0.038-0.005l0.14-0.019l0.04-0.005l0.138-0.018l0.043-0.006l0.136-0.018     l0.007-0.001l0.154-0.02l0.017-0.002l0.047-0.006l0.131-0.017l0.05-0.006l0.129-0.016l0.008-0.001l0.121-0.015l0.05-0.006     l0.054-0.007l0.124-0.015l0.019-0.002c0.11-0.013,0.22-0.026,0.33-0.039l0.015-0.002l0.146-0.016l0.043-0.005l0.137-0.015     L73.33,71l0.119-0.013l0.045-0.005l0.068-0.007l0.111-0.012c0.235-0.025,0.47-0.049,0.705-0.072l0.028-0.003l0.129-0.012     l0.037-0.003l0.083-0.008l0.098-0.009l0.174-0.016l0.013-0.001l0.146-0.013l0.053-0.005l0.136-0.012l0.043-0.003l0.13-0.011     l0.058-0.005l0.125-0.01l0.047-0.003c0.108-0.009,0.217-0.018,0.325-0.026l0.036-0.003l0.148-0.011l0.035-0.003l0.131-0.01     l0.028-0.002l0.106-0.008l0.075-0.005l0.044-0.003l0.126-0.009l0.026-0.002l0.147-0.01l0.019-0.001l0.114-0.007l0.068-0.005     l0.042-0.003l0.135-0.008l0.005,0l0.118-0.007l0.016-0.001l0.1-0.006l0.128-0.008h0l0.123-0.007l0.059-0.003l0.05-0.003     l0.121-0.007l0.012-0.001l0.128-0.007l0.016-0.001l0.131-0.007l0.038-0.002l0.052-0.003l0.133-0.007l0.049-0.002l0.135-0.006     l0.047-0.002l0.138-0.006l0.045-0.002l0.14-0.006l0.042-0.002l0.143-0.006l0.04-0.001l0.145-0.005l0.038-0.002l0.148-0.005     l0.035-0.001l0.03-0.001l0.153-0.005l0.152-0.004l0.031-0.001l0.155-0.005l0.028-0.001l0.157-0.004l0.026-0.001l0.16-0.004     l0.024,0l0.162-0.003l0.021,0l0.165-0.003l0.019,0l0.167-0.003h0.017l0.17-0.002l0.014,0l0.172-0.002h0.012l0.174-0.002h0.01     l0.177-0.002h0.007l0.179-0.001h0.005l0.182,0h0.002l0.184,0c0.537,0,1.072,0.006,1.607,0.016l0.106,0.002     c0.52,0.011,1.039,0.026,1.556,0.046l0.126,0.005c0.52,0.021,1.038,0.046,1.555,0.077l0.078,0.005     c0.502,0.031,1.003,0.065,1.503,0.105l0.147,0.011c0.495,0.039,0.988,0.084,1.481,0.132l0.194,0.02     c0.485,0.049,0.97,0.101,1.453,0.159c0.064,0.008,0.128,0.016,0.192,0.024c0.449,0.054,0.897,0.112,1.343,0.173     c0.079,0.011,0.159,0.022,0.238,0.033c0.453,0.064,0.904,0.131,1.354,0.202c0.106,0.017,0.212,0.034,0.318,0.051     c0.424,0.069,0.848,0.14,1.269,0.215c0.128,0.023,0.256,0.046,0.383,0.07c0.374,0.068,0.747,0.139,1.119,0.213     c0.161,0.031,0.321,0.064,0.482,0.096c0.364,0.074,0.727,0.15,1.089,0.229c0.16,0.035,0.32,0.07,0.479,0.106     c0.337,0.075,0.672,0.153,1.007,0.232c0.215,0.051,0.429,0.102,0.644,0.155c0.286,0.07,0.572,0.142,0.857,0.216     c0.259,0.067,0.517,0.134,0.775,0.203c0.262,0.07,0.524,0.141,0.786,0.214c0.283,0.079,0.565,0.159,0.846,0.24     c0.166,0.048,0.331,0.097,0.497,0.146c0.386,0.114,0.77,0.232,1.154,0.351c0.125,0.039,0.251,0.079,0.376,0.118     c0.358,0.114,0.715,0.23,1.07,0.348l0.056,0.018c3.712,1.241,7.307,2.738,10.763,4.471l0.053,0.022     c18.7,9.389,33.337,25.681,40.566,45.533l0.003,0.002v0c0.167,0.122,0.333,0.245,0.498,0.37l0.003,0.002     c0.161,0.122,0.321,0.245,0.48,0.368l0.022,0.017c0.158,0.124,0.316,0.248,0.473,0.374l0.007,0.005     c0.158,0.127,0.316,0.255,0.473,0.384l0.016,0.014c0.153,0.126,0.305,0.253,0.456,0.381l0.023,0.02     c0.147,0.125,0.293,0.25,0.438,0.378l0.035,0.031c0.149,0.13,0.297,0.262,0.444,0.394l0.016,0.014     c0.144,0.13,0.287,0.261,0.43,0.393l0.04,0.037c0.136,0.126,0.272,0.254,0.407,0.382l0.044,0.042     c0.137,0.131,0.274,0.263,0.409,0.396l0.034,0.033c0.133,0.131,0.266,0.263,0.397,0.395l0.06,0.06     c0.123,0.124,0.245,0.249,0.366,0.375l0.065,0.068c0.121,0.126,0.24,0.252,0.36,0.379l0.069,0.074     c0.115,0.124,0.23,0.249,0.344,0.374l0.095,0.104c0.107,0.118,0.214,0.237,0.32,0.357l0.087,0.098     c0.105,0.12,0.21,0.24,0.314,0.361l0.095,0.111c0.102,0.119,0.203,0.239,0.304,0.359l0.106,0.128     c0.099,0.119,0.197,0.239,0.294,0.358l0.099,0.122c0.094,0.117,0.188,0.234,0.28,0.352l0.109,0.139     c5.262,6.724,8.571,15.049,9.073,24.124v0.005c0.012,0.212,0.022,0.425,0.031,0.638c0.004,0.095,0.008,0.191,0.011,0.286     c0.003,0.089,0.006,0.178,0.008,0.267c0.005,0.172,0.009,0.345,0.012,0.517l0.001,0.07c0.003,0.212,0.005,0.424,0.005,0.637     c0,0.163-0.001,0.326-0.003,0.489l0,0c-0.002,0.163-0.005,0.325-0.008,0.487v0c-0.004,0.162-0.008,0.324-0.014,0.486v0     c-0.006,0.162-0.012,0.323-0.019,0.484v0c-0.007,0.161-0.015,0.322-0.024,0.482v0.001c-0.009,0.161-0.019,0.321-0.029,0.481     v0.001c-0.011,0.16-0.022,0.32-0.035,0.48v0.001c-0.012,0.16-0.026,0.319-0.04,0.478v0.001c-0.014,0.159-0.029,0.318-0.045,0.476     v0.001c-0.016,0.159-0.033,0.317-0.05,0.475l0,0.001c-0.017,0.158-0.036,0.316-0.055,0.473l0,0.002     c-0.019,0.157-0.039,0.314-0.06,0.471l0,0.002c-0.021,0.157-0.043,0.313-0.065,0.469l0,0.002     c-0.023,0.156-0.046,0.312-0.07,0.468l0,0.002c-0.024,0.156-0.049,0.311-0.075,0.466l0,0.002c-0.026,0.155-0.053,0.31-0.08,0.464     l0,0.002c-0.028,0.155-0.056,0.309-0.085,0.463l0,0.002c-0.029,0.154-0.06,0.307-0.09,0.461l0,0.002     c-0.031,0.153-0.063,0.306-0.095,0.459l-0.001,0.002c-0.032,0.153-0.066,0.305-0.1,0.457l0,0.002     c-0.034,0.152-0.069,0.304-0.105,0.455l-0.001,0.003c-0.036,0.151-0.072,0.302-0.11,0.453l-0.001,0.003     c-0.037,0.15-0.076,0.301-0.114,0.451l-0.001,0.002c-0.039,0.15-0.079,0.3-0.119,0.449l-0.001,0.003     c-0.04,0.149-0.082,0.298-0.124,0.447l-0.001,0.002c-0.042,0.149-0.085,0.297-0.128,0.445l-0.001,0.003     c-0.043,0.148-0.088,0.295-0.133,0.443l-0.001,0.003c-0.045,0.147-0.091,0.294-0.138,0.441l-0.001,0.003     c-0.047,0.146-0.094,0.293-0.142,0.438l-0.001,0.003c-0.048,0.146-0.097,0.291-0.147,0.436c-0.044,0.127-0.088,0.253-0.132,0.38     l-0.02,0.057l-0.001,0.003c-0.051,0.144-0.103,0.288-0.156,0.432l-0.001,0.003c-0.052,0.144-0.106,0.287-0.16,0.429l-0.001,0.003     c-0.054,0.143-0.109,0.285-0.165,0.427l-0.001,0.003c-0.056,0.142-0.112,0.284-0.169,0.425l-0.001,0.004     c-0.057,0.141-0.115,0.282-0.173,0.422l-0.002,0.004c-0.058,0.14-0.118,0.28-0.178,0.42l-0.002,0.004     c-0.06,0.139-0.121,0.279-0.182,0.418l-0.002,0.004c-0.061,0.139-0.123,0.277-0.186,0.415l-0.002,0.004     c-0.063,0.138-0.126,0.276-0.19,0.413c-0.103,0.219-0.208,0.438-0.314,0.655c-0.028,0.057-0.056,0.115-0.083,0.172l-0.002,0.004     c-0.067,0.136-0.135,0.271-0.203,0.405l-0.002,0.004c-0.069,0.135-0.137,0.269-0.207,0.403c-0.07,0.135-0.141,0.27-0.213,0.405     l-0.002,0.004c-0.071,0.133-0.143,0.265-0.215,0.397l-0.003,0.005c-0.072,0.132-0.145,0.264-0.219,0.395l-0.002,0.005     c-0.074,0.131-0.148,0.262-0.223,0.392c-0.052,0.089-0.103,0.178-0.155,0.267c-0.025,0.043-0.049,0.085-0.074,0.128l-0.003,0.005     c-0.077,0.129-0.154,0.258-0.231,0.386c-0.214,0.354-0.433,0.705-0.657,1.051c-0.023,0.036-0.046,0.071-0.069,0.107l-0.003,0.005     c-0.082,0.126-0.164,0.251-0.247,0.376l-0.003,0.005c-0.083,0.124-0.166,0.249-0.25,0.373l-0.003,0.005     c-0.084,0.124-0.169,0.247-0.254,0.37c-0.146,0.21-0.294,0.418-0.443,0.625c-0.028,0.039-0.056,0.078-0.083,0.116l-0.004,0.005     c-0.088,0.121-0.176,0.241-0.265,0.361l-0.004,0.005c-0.089,0.12-0.179,0.239-0.269,0.358l-0.004,0.005     c-0.09,0.119-0.181,0.237-0.272,0.355l-0.004,0.005c-0.092,0.118-0.183,0.235-0.276,0.352c-0.182,0.23-0.367,0.458-0.554,0.685     l-0.021,0.026l-0.001,0.002c0-7.067-2.271-13.602-6.121-18.919c-3.662-5.359-8.65-9.153-14.144-11.06     c-3.718-1.494-7.778-2.317-12.03-2.317c-11.87,0-22.243,6.405-27.855,15.947l6.489,1.763l-6.489-1.764     c-2.695,4.678-4.933,9.654-6.653,14.864l0.002-0.001l0.002,0.002c-1.86,5.588-2.869,11.564-2.869,17.777     c0,31.069,25.186,56.255,56.255,56.255c2.331,0,4.628-0.145,6.885-0.42l0.018,0.022c3.259-0.422,6.476-0.984,9.643-1.676     l0.005-0.029c50.619-11.186,88.784-56.553,88.784-110.409C259.625,84.875,208.749,34,146.568,34" data-ignorecolor="" stroke-width="0"/>
		</defs>
		<clipPath id="SVGID_2_">
			<use xlink:href="#SVGID_1_" overflow="visible" data-ignorecolor=""/>
		</clipPath>
		<linearGradient id="SVGID_3_" gradientUnits="userSpaceOnUse" x1="192.6826" y1="41.9799" x2="110.1677" y2="206.3353">
			<stop offset="0" stop-color="#A774D9"/>
			<stop offset="1" stop-color="#6B39FD"/>
		</linearGradient>
		<rect x="20.506" y="34" width="239.118" height="225.568" clip-path="url(#SVGID_2_)" fill="url(#SVGID_3_)" stroke-width="0"/>
	</g>
	<defs>
		<filter id="Adobe_OpacityMaskFilter" filterUnits="userSpaceOnUse" x="20.506" y="124.791" width="153.932" height="134.777">
			<feColorMatrix type="matrix" values="1 0 0 0 0  0 1 0 0 0  0 0 1 0 0  0 0 0 1 0"/>
		</filter>
	</defs>
	<mask maskUnits="userSpaceOnUse" x="20.506" y="124.791" width="153.932" height="134.777" id="SVGID_4_">
		<g filter="url(#Adobe_OpacityMaskFilter)">
			<rect x="20.506" y="130.599" width="147.62" height="128.969" fill="#FFFFFF" stroke-width="0"/>
			<g>
				<g>
					<g>
						<defs>
							<rect id="SVGID_5_" x="20.506" y="130.599" width="147.62" height="128.969" data-ignorecolor="" stroke-width="0"/>
						</defs>
						<clipPath id="SVGID_6_">
							<use xlink:href="#SVGID_5_" overflow="visible" data-ignorecolor=""/>
						</clipPath>
						<g>
							<g>
								<defs>
									<rect id="SVGID_7_" x="20.506" y="130.483" width="147.735" height="129.086" data-ignorecolor="" stroke-width="0"/>
								</defs>
								<clipPath id="SVGID_8_" clip-path="url(#SVGID_6_)">
									<use xlink:href="#SVGID_7_" overflow="visible" data-ignorecolor=""/>
								</clipPath>
								<linearGradient id="SVGID_9_" gradientUnits="userSpaceOnUse" x1="90.1904" y1="134.4652" x2="98.5574" y2="255.5859">
									<stop offset="0" stop-color="#FFFFFF"/>
									<stop offset="1" stop-color="#000000"/>
								</linearGradient>
								<rect x="20.506" y="130.483" width="147.736" height="129.086" clip-path="url(#SVGID_8_)" fill="url(#SVGID_9_)" stroke-width="0"/>
							</g>
						</g>
					</g>
				</g>
			</g>
		</g>
	</mask>
	<g mask="url(#SVGID_4_)">
		<g>
			<defs>
				<rect id="SVGID_10_" x="20.506" y="130.599" width="147.62" height="128.969" data-ignorecolor="" stroke-width="0"/>
			</defs>
			<clipPath id="SVGID_11_">
				<use xlink:href="#SVGID_10_" overflow="visible" data-ignorecolor=""/>
			</clipPath>
			<g clip-path="url(#SVGID_11_)">
				<defs>
					<path id="SVGID_12_" d="M20.506,160.104v99.464H154.29c-31.069,0-56.255-25.186-56.255-56.255       c0-6.212,1.01-12.189,2.869-17.777l-0.002-0.002l-0.002,0.001c1.72-5.211,3.958-10.186,6.653-14.864l0,0       c5.612-9.542,15.985-15.947,27.855-15.947c4.252,0,8.312,0.824,12.03,2.317c5.494,1.907,10.483,5.701,14.144,11.06       c3.85,5.317,6.121,11.852,6.121,18.919c6.735-57.399-68.628-62.229-108.361-40.993l7.044-15.429       C54.186,135.594,37.037,146.342,20.506,160.104" data-ignorecolor="" stroke-width="0"/>
				</defs>
				<clipPath id="SVGID_13_">
					<use xlink:href="#SVGID_12_" overflow="visible" data-ignorecolor=""/>
				</clipPath>
				
					<linearGradient id="SVGID_14_" gradientUnits="userSpaceOnUse" x1="-342.0815" y1="742.2489" x2="-254.5282" y2="689.9615" gradientTransform="matrix(1 0 0 1 385.1504 -517.5791)">
					<stop offset="0" stop-color="#F79BFA"/>
					<stop offset="1" stop-color="#FD63F4"/>
				</linearGradient>
				<rect x="20.506" y="124.791" width="153.932" height="134.777" clip-path="url(#SVGID_13_)" fill="url(#SVGID_14_)" stroke-width="0"/>
			</g>
		</g>
	</g>
	<g>
		<defs>
			<path id="SVGID_15_" d="M83.611,259.568h70.679c-31.069,0-56.255-25.186-56.255-56.255c0-6.212,1.01-12.189,2.869-17.777     l-0.002-0.002l-0.002,0.001c1.72-5.211,3.958-10.186,6.653-14.864l0,0c5.612-9.542,15.985-15.947,27.855-15.947     c-0.697-0.033-1.388-0.052-2.075-0.058l-0.033,0c-43.722-0.365-67.922,52.798-55.342,80.246l-8.385-7.547     C68.113,237.799,74.314,249.078,83.611,259.568" data-ignorecolor="" stroke-width="0"/>
		</defs>
		<clipPath id="SVGID_16_">
			<use xlink:href="#SVGID_15_" overflow="visible" data-ignorecolor=""/>
		</clipPath>
		<linearGradient id="SVGID_17_" gradientUnits="userSpaceOnUse" x1="115.9314" y1="254.2981" x2="105.1445" y2="170.5166">
			<stop offset="0" stop-color="#E795F6"/>
			<stop offset="1" stop-color="#BC14DE"/>
		</linearGradient>
		<rect x="65.377" y="154.302" width="88.913" height="105.267" clip-path="url(#SVGID_16_)" fill="url(#SVGID_17_)" stroke-width="0"/>
	</g>
	<g>
		<defs>
			<path id="SVGID_18_" d="M133.949,154.676c0.091,0.002,0.182,0.004,0.272,0.007L133.949,154.676z M20.506,259.568h63.105     c-9.297-10.49-15.499-21.769-14.04-32.202l8.385,7.547c-12.58-27.448,11.62-80.611,55.342-80.246     c-27.226-0.323-65.863,17.109-76.808,41.674l1.336-14.088c0,0-22.434,22.89-37.32,47.001V259.568z" data-ignorecolor="" stroke-width="0"/>
		</defs>
		<clipPath id="SVGID_19_">
			<use xlink:href="#SVGID_18_" overflow="visible" data-ignorecolor=""/>
		</clipPath>
		<linearGradient id="SVGID_20_" gradientUnits="userSpaceOnUse" x1="38.0164" y1="293.047" x2="102.326" y2="152.3038">
			<stop offset="0" stop-color="#FDDEFE"/>
			<stop offset="1" stop-color="#D937FA"/>
		</linearGradient>
		<rect x="20.506" y="154.302" width="113.714" height="105.267" clip-path="url(#SVGID_19_)" fill="url(#SVGID_20_)" stroke-width="0"/>
	</g>
	<g>
		<defs>
			<path id="SVGID_21_" d="M20.506,160.104c16.531-13.762,33.68-24.51,45.879-29.505l-7.044,15.429     c26.62-14.228,69.23-16.753,92.432,0.391c5.264,3.904,7.74,7.494,8.263,8.068c-9.013-11.777-28.37-14.652-41.61-15.755     c-29.013-2.418-69.263,19.286-69.263,19.286l4.66-14.698L20.506,160.104z" data-ignorecolor="" stroke-width="0"/>
		</defs>
		<clipPath id="SVGID_22_">
			<use xlink:href="#SVGID_21_" overflow="visible" data-ignorecolor=""/>
		</clipPath>
		<linearGradient id="SVGID_23_" gradientUnits="userSpaceOnUse" x1="135.4774" y1="129.2682" x2="35.6862" y2="163.3109">
			<stop offset="0" stop-color="#AE1CDB"/>
			<stop offset="1" stop-color="#FBA6FA"/>
		</linearGradient>
		<rect x="20.506" y="129.275" width="139.531" height="30.829" clip-path="url(#SVGID_22_)" fill="url(#SVGID_23_)" stroke-width="0"/>
	</g>
	<g>
		<defs>
			<path id="SVGID_24_" d="M20.506,252.357v-23.103c14.886-24.112,37.32-47.001,37.32-47.001l-1.336,14.088     c7.815-17.54,29.749-31.441,51.566-37.841c-22.041,7.859-44.589,34.511-54.936,55.073l-1.424-14.741     c0,0-3.104,4.846-10.483,17.425C33.835,228.833,20.506,252.357,20.506,252.357" data-ignorecolor="" stroke-width="0"/>
		</defs>
		<clipPath id="SVGID_25_">
			<use xlink:href="#SVGID_24_" overflow="visible" data-ignorecolor=""/>
		</clipPath>
		<linearGradient id="SVGID_26_" gradientUnits="userSpaceOnUse" x1="107.7344" y1="159.4512" x2="19.7105" y2="252.5883">
			<stop offset="0" stop-color="#AB21B8"/>
			<stop offset="1" stop-color="#F5B9FD"/>
		</linearGradient>
		<rect x="20.506" y="158.499" width="87.551" height="93.858" clip-path="url(#SVGID_25_)" fill="url(#SVGID_26_)" stroke-width="0"/>
	</g>
	<g>
		<defs>
			<path id="SVGID_27_" d="M101.517,259.568H83.611c-9.297-10.49-15.499-21.769-14.04-32.202l8.385,7.547     c-11.286-24.624,7.033-69.935,42.489-78.737c-29.853,13.631-45.699,66.982-26.237,89.261l-11.907-2.18     C82.301,243.256,87.19,252.151,101.517,259.568z" data-ignorecolor="" stroke-width="0"/>
		</defs>
		<clipPath id="SVGID_28_">
			<use xlink:href="#SVGID_27_" overflow="visible" data-ignorecolor=""/>
		</clipPath>
		<linearGradient id="SVGID_29_" gradientUnits="userSpaceOnUse" x1="100.2735" y1="141.1839" x2="88.7493" y2="255.6326">
			<stop offset="0" stop-color="#84009E"/>
			<stop offset="1" stop-color="#E795F6"/>
		</linearGradient>
		<rect x="66.671" y="156.176" width="53.774" height="103.393" clip-path="url(#SVGID_28_)" fill="url(#SVGID_29_)" stroke-width="0"/>
	</g>
	<g>
		<defs>
			<path id="SVGID_30_" d="M227.336,225.956c-15.138,15.489-34.656,26.682-56.496,31.509l-0.005,0.029     c-3.167,0.693-6.383,1.254-9.643,1.676l-0.018-0.022c-2.257,0.275-4.554,0.42-6.885,0.42c-31.069,0-56.255-25.186-56.255-56.255     c0-6.212,1.01-12.189,2.869-17.776l-0.002-0.002l-0.002,0.001c1.72-5.211,3.958-10.186,6.653-14.864l0.001,0     c5.612-9.542,15.985-15.947,27.855-15.947c4.252,0,8.312,0.824,12.03,2.317c5.494,1.907,10.483,5.701,14.144,11.06     c1.242,1.715,2.319,3.557,3.209,5.503c-31.308-34.678-57.152,1.5-55.693,28.221C112.612,266.163,191.963,261.498,227.336,225.956     z M229.68,223.492c-0.074,0.08-0.147,0.159-0.221,0.239C229.533,223.651,229.608,223.572,229.68,223.492z" data-ignorecolor="" stroke-width="0"/>
		</defs>
		<clipPath id="SVGID_31_">
			<use xlink:href="#SVGID_30_" overflow="visible" data-ignorecolor=""/>
		</clipPath>
		<linearGradient id="SVGID_32_" gradientUnits="userSpaceOnUse" x1="105.5186" y1="115.3924" x2="176.6508" y2="221.6572">
			<stop offset="0" stop-color="#3C0169"/>
			<stop offset="1" stop-color="#6B39FD"/>
		</linearGradient>
		<rect x="98.035" y="138.927" width="131.646" height="127.236" clip-path="url(#SVGID_31_)" fill="url(#SVGID_32_)" stroke-width="0"/>
	</g>
	<g>
		<defs>
			<path id="SVGID_33_" d="M131.984,110.221c-0.48,0-7.386,1.055-7.386,1.055l-16.69-11.031     C114.051,101.262,129.376,103.699,131.984,110.221z" data-ignorecolor="" stroke-width="0"/>
		</defs>
		<clipPath id="SVGID_34_">
			<use xlink:href="#SVGID_33_" overflow="visible" data-ignorecolor=""/>
		</clipPath>
		<linearGradient id="SVGID_35_" gradientUnits="userSpaceOnUse" x1="105.3759" y1="103.2358" x2="128.8669" y2="107.3059">
			<stop offset="0" stop-color="#EE84F4"/>
			<stop offset="1" stop-color="#C736E4"/>
		</linearGradient>
		<rect x="107.908" y="100.245" width="24.076" height="11.031" clip-path="url(#SVGID_34_)" fill="url(#SVGID_35_)" stroke-width="0"/>
	</g>
</g>
</svg></g></g><g id="shape_RwMyvYnIc6" transform="translate(134.07999999999998,55.59130385399635) rotate(0,473.15837299071,339.67556) scale(1,1)" filter="" style="cursor: move; opacity: 1;"><g><svg xmlns="http://www.w3.org/2000/svg" xmlns:xlink="http://www.w3.org/1999/xlink" version="1.1" width="717.6800000000001" height="679.35112" viewBox="0 0 717.6800000000001 679.35112" data-parent="shape_RwMyvYnIc6"><g data-width="345.01196" transform="translate(93.41402000000001, 0)"><path d="M54.92-23.60L54.92-23.60Q52.69-14.12 46.51-9.43Q40.33-4.74 33.13-3.48Q25.92-2.23 16.73-2.23L16.73-2.23Q13.01-2.23 8.73-2.42L8.73-2.42Q7.25-2.51 5.11-2.51L5.11-2.51Q5.02-2.79 5.48-13.29L5.48-13.29Q6.78-39.96 6.78-53.80L6.78-53.80Q6.78-59.38 6.50-61.98L6.50-61.98Q11.99-64.30 17.10-65.51L17.10-65.51L17.10-62.07Q17.10-60.12 17.19-59.65L17.19-59.65Q18.58-61.14 22.07-62.12Q25.55-63.09 29.64-63.09L29.64-63.09Q32.52-63.09 35.31-62.54L35.31-62.54Q45.44-60.40 50.97-53.48Q56.50-46.55 56.50-35.77L56.50-35.77Q56.50-30.38 54.92-23.60L54.92-23.60ZM37.35-57.80L37.35-57.80Q37.35-57.52 37.26-57.42Q37.17-57.33 37.35-56.96L37.35-56.96Q38.28-55.19 39.58-54.92L39.58-54.92L39.86-56.03L38.28-57.80L37.35-57.80ZM42.65-28.81L42.65-28.81Q43.21-31.59 43.21-34.19L43.21-34.19Q43.21-40.05 40.65-44.74Q38.10-49.43 33.87-52.08Q29.64-54.73 24.81-54.73L24.81-54.73Q21.28-54.73 17.84-53.15L17.84-53.15Q17.84-50.18 17.28-34.19L17.28-34.19Q17.19-30.66 16.91-22.53Q16.63-14.40 16.63-10.87L16.63-10.87Q19.42-10.31 22.11-10.31L22.11-10.31Q29.92-10.31 35.36-14.96Q40.79-19.61 42.65-28.81L42.65-28.81ZM43.11-15.61L43.11-15.61Q43.30-15.98 43.86-16.96Q44.42-17.93 44.69-18.86Q44.97-19.79 44.97-20.81L44.97-20.81Q44.97-21.74 44.88-22.21L44.88-22.21Q44.14-20.81 42.88-18.40Q41.63-15.98 41.72-15.80L41.72-15.80Q41.81-15.42 42.09-15.38Q42.37-15.33 42.65-15.15L42.65-15.15Q42.74-15.33 42.79-15.42Q42.84-15.52 43.11-15.61L43.11-15.61ZM46.27-47.39L46.55-46.65L46.74-46.65L46.27-47.39Z" transform="translate(0 375.67556) " fill="rgb(49, 49, 49)" stroke="rgb(49, 49, 49)" stroke-width="0.155" data-glyph-w="60.398" data-glyph-h="121.63228000000001" data-glyph-ascender="96.91556" data-glyph-descender="-24.716720000000002"/><path d="M1.67-63.56L1.67-63.56Q2.88-64.21 5.58-64.81Q8.27-65.42 10.31-65.42L10.31-65.42Q12.36-65.42 13.01-64.67L13.01-64.67Q14.12-62.81 18.12-52.22Q22.11-41.63 25.92-30.62Q29.73-19.61 29.73-18.96L29.73-18.96Q33.54-33.17 38.28-48.09Q43.02-63.00 44.04-64.67L44.04-64.67Q47.76-65.04 50.08-65.04L50.08-65.04Q54.08-65.04 56.50-64.21L56.50-64.21Q56.87-63.56 56.87-62.16L56.87-62.16Q56.87-60.96 56.77-60.21L56.77-60.21Q56.77-59.56 56.73-58.03Q56.68-56.50 56.77-55.19L56.77-55.19Q56.87-53.89 56.68-43.49L56.68-43.49Q56.40-26.20 56.40-24.16L56.40-24.16Q56.40-6.23 57.98-3.90L57.98-3.90Q57.89-2.60 54.59-1.49Q51.29-0.37 48.50-0.37L48.50-0.37Q46.46-0.37 46.27-1.12L46.27-1.12Q46.83 0.09 47.11-18.63Q47.39-37.35 47.39-47.48L47.39-47.48Q46.92-45.62 43.21-34.29L43.21-34.29Q38.65-20.54 36.15-12.31Q33.64-4.09 33.64-1.86L33.64-1.86Q33.64-1.30 32.34-0.93Q31.04-0.56 29.18-0.56L29.18-0.56Q25.00-0.56 23.42-1.86L23.42-1.86Q23.14-6.13 21.51-11.85Q19.88-17.56 16.45-28.25L16.45-28.25Q13.57-37.08 12.31-41.58Q11.06-46.09 10.96-48.69L10.96-48.69L11.62-1.49Q11.24-1.21 10.31-1.21L10.31-1.21Q8.73-1.21 3.07-2.69L3.07-2.69L1.12-3.25Q1.02-3.35 1.02-4.00L1.02-4.00Q1.02-5.30 1.58-8.46L1.58-8.46Q2.04-10.59 2.04-11.52L2.04-11.52L2.14-25.65Q2.32-36.24 2.32-42.00L2.32-42.00Q2.32-54.45 1.67-63.56L1.67-63.56ZM48.32-59.93L48.32-59.93Q48.23-59.47 48.09-58.91Q47.95-58.35 47.95-57.98L47.95-57.98Q47.95-57.42 48.32-56.68L48.32-56.68Q48.41-57.42 48.55-57.94Q48.69-58.45 48.69-58.82L48.69-58.82Q48.69-59.19 48.32-59.93L48.32-59.93ZM49.81-57.42L49.81-57.42Q49.71-57.33 49.53-57.15Q49.34-56.96 49.43-56.87Q49.53-56.77 49.81-56.68L49.81-56.68Q49.90-56.87 50.08-57.01Q50.27-57.15 50.18-57.24Q50.08-57.33 49.81-57.42L49.81-57.42ZM6.04-20.35L6.04-20.35Q6.04-17.10 6.18-14.87Q6.32-12.64 6.88-11.15L6.88-11.15Q6.88-14.68 6.74-16.91Q6.60-19.14 6.04-20.35L6.04-20.35Z" transform="translate(60.398 375.67556) " fill="rgb(49, 49, 49)" stroke="rgb(49, 49, 49)" stroke-width="0.155" data-glyph-w="60.398" data-glyph-h="121.63228000000001" data-glyph-ascender="96.91556" data-glyph-descender="-24.716720000000002"/><path d="M33.36-9.94L33.36-9.94Q34.29-8.92 34.94-7.11Q35.59-5.30 35.87-3.58Q36.15-1.86 36.05-1.58L36.05-1.58Q30.01-1.95 23.42-1.95L23.42-1.95Q14.87-1.95 8.18-1.39L8.18-1.39Q7.25-1.39 6.13-3.07Q5.02-4.74 4.37-6.60Q3.72-8.46 4.18-8.55L4.18-8.55L8.36-8.83Q15.80-9.01 15.80-9.57L15.80-9.57L16.08-16.73Q17.00-37.45 17.00-47.02L17.00-47.02Q17.00-54.27 16.45-55.19L16.45-55.19Q16.45-55.29 14.59-55.10L14.59-55.10Q12.36-54.92 10.87-54.92L10.87-54.92Q9.01-54.92 8.46-55.19L8.46-55.19Q7.43-56.22 6.32-58.45Q5.20-60.68 4.83-62.26L4.83-62.26Q6.32-62.16 9.48-62.16L9.48-62.16Q16.35-62.16 23.65-62.81Q30.94-63.46 34.38-64.30L34.38-64.30Q35.31-63.65 36.19-61.37Q37.08-59.10 37.63-56.59L37.63-56.59Q36.98-56.50 35.17-56.36Q33.36-56.22 32.24-56.12L32.24-56.12Q27.04-55.94 25.55-55.66L25.55-55.66Q25.83-55.10 25.83-48.13L25.83-48.13Q25.83-48.04 25.55-24.90L25.55-24.90L25.37-10.59Q25.83-10.50 28.71-10.31L28.71-10.31Q32.52-10.13 33.36-9.94L33.36-9.94ZM20.54-23.69L20.54-23.69Q20.26-24.07 20.12-24.62Q19.98-25.18 19.88-25.46L19.88-25.46L19.23-25.74Q19.14-25.65 19.00-25.60Q18.86-25.55 18.77-25.46L18.77-25.46Q18.68-25.46 18.72-25.37Q18.77-25.27 18.68-25.09L18.68-25.09Q18.68-24.62 18.82-24.16Q18.96-23.69 19.05-23.23L19.05-23.23Q19.51-23.14 19.75-23.14Q19.98-23.14 20.26-23.32L20.26-23.32L20.54-23.69ZM21.65-18.68L21.65-18.68Q21.84-18.77 21.84-18.91Q21.84-19.05 21.84-19.23L21.84-19.23Q20.91-19.14 20.44-19.00Q19.98-18.86 19.51-18.31L19.51-18.31Q19.79-18.40 20.63-18.44Q21.46-18.49 21.65-18.68L21.65-18.68ZM17.75-54.36L18.31-54.36L18.31-54.73L17.75-54.36Z" transform="translate(120.796 375.67556) " fill="rgb(49, 49, 49)" stroke="rgb(49, 49, 49)" stroke-width="0.155" data-glyph-w="41.814" data-glyph-h="121.63228000000001" data-glyph-ascender="96.91556" data-glyph-descender="-24.716720000000002"/><path d="M9.48-45.16L9.48-45.16Q13.47-55.84 23.14-60.44Q32.80-65.04 47.30-65.04L47.30-65.04Q49.06-62.72 50.32-59.10Q51.57-55.47 51.57-53.06L51.57-53.06Q51.57-50.92 50.55-50.55L50.55-50.55Q49.25-52.13 44.97-53.29Q40.70-54.45 36.98-54.45L36.98-54.45Q34.94-54.45 33.73-53.99L33.73-53.99Q26.20-51.11 22.39-45.44Q18.58-39.77 18.58-32.99L18.58-32.99Q18.58-27.04 21.42-21.74Q24.25-16.45 29.50-13.15Q34.75-9.85 41.72-9.85L41.72-9.85Q48.32-9.85 55.10-12.73L55.10-12.73Q53.61-7.53 47.95-4.37Q42.28-1.21 35.31-1.21L35.31-1.21Q29.27-1.21 24.44-3.44L24.44-3.44Q15.70-7.34 11.24-14.54Q6.78-21.74 6.78-30.76L6.78-30.76Q6.78-38.19 9.48-45.16L9.48-45.16ZM30.85-61.14L30.85-61.14Q30.57-60.21 30.48-59.28L30.48-59.28Q31.04-59.10 31.59-59.10L31.59-59.10Q32.24-59.65 34.10-59.65L34.10-59.65Q34.38-60.03 34.57-60.68L34.57-60.68Q33.82-61.05 32.99-61.14L32.99-61.14Q32.80-61.23 32.38-61.33Q31.96-61.42 31.59-61.51L31.59-61.51Q31.31-61.23 30.85-61.14L30.85-61.14ZM14.77-29.83L14.77-29.83Q14.68-29.64 14.54-29.32Q14.40-28.99 14.31-28.25L14.31-28.25L14.77-28.25Q15.05-28.06 15.52-27.97L15.52-27.97Q15.80-28.62 15.89-29.27L15.89-29.27L15.52-29.83L14.77-29.83ZM47.76-8.55L47.76-8.55Q48.04-8.83 48.60-9.11L48.60-9.11L48.60-9.38L48.04-9.38Q48.13-9.48 47.02-8.55L47.02-8.55L47.76-8.55ZM37.35-5.30L37.35-5.30Q37.35-5.11 37.31-4.97Q37.26-4.83 37.35-4.46L37.35-4.46L38.10-4.27L38.28-5.11Q38.10-5.11 38.10-5.30L38.10-5.30L37.35-5.30Z" transform="translate(162.61 375.67556) " fill="rgb(49, 49, 49)" stroke="rgb(49, 49, 49)" stroke-width="0.155" data-glyph-w="56.95996" data-glyph-h="121.63228000000001" data-glyph-ascender="96.91556" data-glyph-descender="-24.716720000000002"/><path d="M40.51-25.37L40.51-25.37Q42.93-19.42 45.58-14.87Q48.23-10.31 53.80-4.46L53.80-4.46Q48.69-2.14 45.67-0.98Q42.65 0.19 41.16 0.19L41.16 0.19Q40.33 0.19 40.05 0L40.05 0Q38.65-0.74 36.42-7.43Q34.19-14.12 32.66-21.05Q31.13-27.97 31.69-28.25L31.69-28.25Q27.50-26.95 20.91-26.95L20.91-26.95Q18.21-26.95 16.35-27.13L16.35-27.13Q16.26-21.56 15.94-13.61Q15.61-5.67 15.33-2.32L15.33-2.32Q13.85-2.14 10.96-1.39L10.96-1.39Q6.69-0.28 5.85-0.56L5.85-0.56Q7.06-23.04 7.06-53.89L7.06-53.89L7.06-61.79Q7.62-62.54 10.59-63.46Q13.57-64.39 16.35-65.04L16.35-65.04Q16.54-65.14 16.35-63.00L16.35-63.00L16.26-60.77Q16.26-59.93 16.40-59.56Q16.54-59.19 16.82-59.47L16.82-59.47Q23.14-65.32 32.61-65.32L32.61-65.32Q35.96-65.32 39.07-64.53Q42.19-63.74 44.42-62.44L44.42-62.44Q48.69-59.93 50.87-55.94Q53.06-51.94 53.06-47.30L53.06-47.30Q53.06-40.98 49.25-35.82Q45.44-30.66 38.84-29.36L38.84-29.36L40.51-25.37ZM32.71-60.12L32.71-60.12Q32.71-60.12 32.24-59.65L32.24-59.65L35.12-59.65Q35.31-59.84 35.40-59.79Q35.50-59.75 35.59-60.12L35.59-60.12L32.71-60.12ZM16.63-33.82L16.63-33.82Q17.75-33.64 18.77-33.64L18.77-33.64Q22.21-33.64 26.71-34.66Q31.22-35.68 34.94-37.68Q38.65-39.68 39.77-42.56L39.77-42.56Q41.91-45.90 41.91-48.88L41.91-48.88Q41.91-53.06 38.14-55.61Q34.38-58.17 29.18-58.17L29.18-58.17Q25.55-58.17 22.30-56.82Q19.05-55.47 16.82-52.78L16.82-52.78Q16.54-52.41 16.35-49.39Q16.17-46.37 16.17-42.74L16.17-42.74Q16.17-35.77 16.63-33.82L16.63-33.82ZM9.76-14.77L9.76-14.77Q9.76-11.52 9.90-9.29Q10.04-7.06 10.59-5.58L10.59-5.58Q10.59-9.11 10.45-11.34Q10.31-13.57 9.76-14.77L9.76-14.77ZM39.40-6.60L39.40-6.60Q40.23-4.27 41.72-4.00L41.72-4.00Q42.00-4.37 42.09-5.30L42.09-5.30Q41.72-5.48 40.98-5.95Q40.23-6.41 39.40-6.60L39.40-6.60Z" transform="translate(219.56996 375.67556) " fill="rgb(49, 49, 49)" stroke="rgb(49, 49, 49)" stroke-width="0.155" data-glyph-w="60.398" data-glyph-h="121.63228000000001" data-glyph-ascender="96.91556" data-glyph-descender="-24.716720000000002"/><path d="M6.41-46.74L6.41-46.74Q10.69-55.66 18.07-60.44Q25.46-65.23 33.64-65.23L33.64-65.23Q41.81-65.23 48.78-60.54Q55.75-55.84 59.47-47.11L59.47-47.11Q62.54-39.96 62.54-32.06L62.54-32.06Q62.54-24.35 59.47-17.61Q56.40-10.87 50.69-6.27Q44.97-1.67 37.17-0.37L37.17-0.37Q35.03 0 32.52 0L32.52 0Q24.35 0 17.61-4.65Q10.87-9.29 7.06-16.86Q3.25-24.44 3.25-32.80L3.25-32.80Q3.25-40.14 6.41-46.74L6.41-46.74ZM33.36-59.75L33.36-59.75Q33.17-59.75 32.80-59.56Q32.43-59.38 32.34-59.19L32.34-59.19L36.80-59.19L37.17-59.56L37.17-59.75L33.36-59.75ZM34.66-8.73L34.66-8.73Q38.93-9.38 42.14-13.10Q45.34-16.82 46.97-22.39Q48.60-27.97 48.60-34.01L48.60-34.01Q48.60-39.96 46.92-45.02Q45.25-50.08 41.86-52.96Q38.47-55.84 33.54-55.47L33.54-55.47Q27.78-55.01 23.69-51.43Q19.61-47.85 17.56-42.37Q15.52-36.89 15.52-30.85L15.52-30.85Q15.52-25.00 17.42-19.88Q19.33-14.77 23.09-11.66Q26.85-8.55 32.15-8.55L32.15-8.55Q32.99-8.55 34.66-8.73L34.66-8.73ZM8.73-36.52L8.73-36.52Q8.73-33.27 8.87-31.04Q9.01-28.81 9.57-27.32L9.57-27.32Q9.57-30.85 9.43-33.08Q9.29-35.31 8.73-36.52L8.73-36.52ZM45.81-13.38L45.81-13.38Q45.62-13.19 45.16-13.06Q44.69-12.92 44.42-12.82L44.42-12.82L45.62-12.73Q46.83-12.73 47.20-13.38L47.20-13.38L45.81-13.38Z" transform="translate(279.96796 375.67556) " fill="rgb(49, 49, 49)" stroke="rgb(49, 49, 49)" stroke-width="0.155" data-glyph-w="65.044" data-glyph-h="121.63228000000001" data-glyph-ascender="96.91556" data-glyph-descender="-24.716720000000002"/></g></svg></g></g>  <!----></svg>
