<svg width="360" height="280" xmlns="http://www.w3.org/2000/svg" xmlns:xlink="http://www.w3.org/1999/xlink" version="1.1" preserveAspectRatio="none">
 <defs>
  <linearGradient y2="0.764006" x2="0.374968" y1="0.035377" x1="0.720049" id="svg_36">
   <stop stop-color="#A774D9" offset="0"/>
   <stop stop-color="#6B39FD" offset="1"/>
  </linearGradient>
  <linearGradient y2="0.969144" x2="0.528317" y1="0.030849" x1="0.471682" id="svg_31">
   <stop stop-color="#FFFFFF" offset="0"/>
   <stop stop-color="#000000" offset="1"/>
  </linearGradient>
  <linearGradient y2="0.353112" x2="0.715356" y1="0.741067" x1="0.146577" id="svg_26">
   <stop stop-color="#F79BFA" offset="0"/>
   <stop stop-color="#FD63F4" offset="1"/>
  </linearGradient>
  <linearGradient y2="0.154033" x2="0.447263" y1="0.949928" x1="0.568583" id="svg_21">
   <stop stop-color="#E795F6" offset="0"/>
   <stop stop-color="#BC14DE" offset="1"/>
  </linearGradient>
  <linearGradient y2="-0.018982" x2="0.719524" y1="1.318029" x1="0.153986" id="svg_18">
   <stop stop-color="#FDDEFE" offset="0"/>
   <stop stop-color="#D937FA" offset="1"/>
  </linearGradient>
  <linearGradient y2="1.104022" x2="0.108794" y1="-0.00022" x1="0.823985" id="svg_15">
   <stop stop-color="#AE1CDB" offset="0"/>
   <stop stop-color="#FBA6FA" offset="1"/>
  </linearGradient>
  <linearGradient y2="1.002464" x2="-0.009086" y1="0.010145" x1="0.996315" id="svg_12">
   <stop stop-color="#AB21B8" offset="0"/>
   <stop stop-color="#F5B9FD" offset="1"/>
  </linearGradient>
  <linearGradient y2="0.961928" x2="0.410576" y1="-0.145001" x1="0.624884" id="svg_9">
   <stop stop-color="#84009E" offset="0"/>
   <stop stop-color="#E795F6" offset="1"/>
  </linearGradient>
  <linearGradient y2="0.650211" x2="0.597176" y1="-0.184968" x1="0.056846" id="svg_6">
   <stop stop-color="#3C0169" offset="0"/>
   <stop stop-color="#6B39FD" offset="1"/>
  </linearGradient>
  <linearGradient y2="0.640096" x2="0.870531" y1="0.271127" x1="-0.105171" id="svg_3">
   <stop stop-color="#EE84F4" offset="0"/>
   <stop stop-color="#C736E4" offset="1"/>
  </linearGradient>
 </defs>
 <!---->
 <g>
  <title>background</title>
  <rect fill="none" id="canvas_background" height="282" width="362" y="-1" x="-1"/>
 </g>
 <g>
  <title>Layer 1</title>
  <g style="cursor: move; opacity: 1;" transform="translate(307.1322021484375,158.73313903808594) scale(1) " id="shape_JZfIU9uh3q">
   <svg data-parent="shape_JZfIU9uh3q" preserveAspectRatio="none" class="style-removed" height="180.333306" width="185.735625" viewBox="20.506000518798828 34 239.1179962158203 232.16299438476562" xml:space="preserve" style="enable-background:new 0 0 283.465 283.465;" y="-153" x="-227" id="svg_1" version="1.1" xmlns:xlink="http://www.w3.org/1999/xlink" xmlns="http://www.w3.org/2000/svg">
    <g id="svg_41">
     <g id="svg_42">
      <defs>
       <path stroke-width="0" d="m146.568,34l-94.56,0c-17.326,0 -31.501,14.175 -31.501,31.501l0,23.661l0,9.318c14.457,-13.907 34.101,-22.46 55.745,-22.46c1.215,0 2.424,0.027 3.626,0.081l-9.223,-4.771l0.017,0.004l0.146,-0.02l0.001,0c0.11,-0.015 0.219,-0.03 0.329,-0.046l0.026,-0.003l0.038,-0.005l0.14,-0.019l0.04,-0.005l0.138,-0.018l0.043,-0.006l0.136,-0.018l0.007,-0.001l0.154,-0.02l0.017,-0.002l0.047,-0.006l0.131,-0.017l0.05,-0.006l0.129,-0.016l0.008,-0.001l0.121,-0.015l0.05,-0.006l0.054,-0.007l0.124,-0.015l0.019,-0.002c0.11,-0.013 0.22,-0.026 0.33,-0.039l0.015,-0.002l0.146,-0.016l0.043,-0.005l0.137,-0.015l0.039,-0.003l0.119,-0.013l0.045,-0.005l0.068,-0.007l0.111,-0.012c0.235,-0.025 0.47,-0.049 0.705,-0.072l0.028,-0.003l0.129,-0.012l0.037,-0.003l0.083,-0.008l0.098,-0.009l0.174,-0.016l0.013,-0.001l0.146,-0.013l0.053,-0.005l0.136,-0.012l0.043,-0.003l0.13,-0.011l0.058,-0.005l0.125,-0.01l0.047,-0.003c0.108,-0.009 0.217,-0.018 0.325,-0.026l0.036,-0.003l0.148,-0.011l0.035,-0.003l0.131,-0.01l0.028,-0.002l0.106,-0.008l0.075,-0.005l0.044,-0.003l0.126,-0.009l0.026,-0.002l0.147,-0.01l0.019,-0.001l0.114,-0.007l0.068,-0.005l0.042,-0.003l0.135,-0.008l0.005,0l0.118,-0.007l0.016,-0.001l0.1,-0.006l0.128,-0.008l0,0l0.123,-0.007l0.059,-0.003l0.05,-0.003l0.121,-0.007l0.012,-0.001l0.128,-0.007l0.016,-0.001l0.131,-0.007l0.038,-0.002l0.052,-0.003l0.133,-0.007l0.049,-0.002l0.135,-0.006l0.047,-0.002l0.138,-0.006l0.045,-0.002l0.14,-0.006l0.042,-0.002l0.143,-0.006l0.04,-0.001l0.145,-0.005l0.038,-0.002l0.148,-0.005l0.035,-0.001l0.03,-0.001l0.153,-0.005l0.152,-0.004l0.031,-0.001l0.155,-0.005l0.028,-0.001l0.157,-0.004l0.026,-0.001l0.16,-0.004l0.024,0l0.162,-0.003l0.021,0l0.165,-0.003l0.019,0l0.167,-0.003l0.017,0l0.17,-0.002l0.014,0l0.172,-0.002l0.012,0l0.174,-0.002l0.01,0l0.177,-0.002l0.007,0l0.179,-0.001l0.005,0l0.182,0l0.002,0l0.184,0c0.537,0 1.072,0.006 1.607,0.016l0.106,0.002c0.52,0.011 1.039,0.026 1.556,0.046l0.126,0.005c0.52,0.021 1.038,0.046 1.555,0.077l0.078,0.005c0.502,0.031 1.003,0.065 1.503,0.105l0.147,0.011c0.495,0.039 0.988,0.084 1.481,0.132l0.194,0.02c0.485,0.049 0.97,0.101 1.453,0.159c0.064,0.008 0.128,0.016 0.192,0.024c0.449,0.054 0.897,0.112 1.343,0.173c0.079,0.011 0.159,0.022 0.238,0.033c0.453,0.064 0.904,0.131 1.354,0.202c0.106,0.017 0.212,0.034 0.318,0.051c0.424,0.069 0.848,0.14 1.269,0.215c0.128,0.023 0.256,0.046 0.383,0.07c0.374,0.068 0.747,0.139 1.119,0.213c0.161,0.031 0.321,0.064 0.482,0.096c0.364,0.074 0.727,0.15 1.089,0.229c0.16,0.035 0.32,0.07 0.479,0.106c0.337,0.075 0.672,0.153 1.007,0.232c0.215,0.051 0.429,0.102 0.644,0.155c0.286,0.07 0.572,0.142 0.857,0.216c0.259,0.067 0.517,0.134 0.775,0.203c0.262,0.07 0.524,0.141 0.786,0.214c0.283,0.079 0.565,0.159 0.846,0.24c0.166,0.048 0.331,0.097 0.497,0.146c0.386,0.114 0.77,0.232 1.154,0.351c0.125,0.039 0.251,0.079 0.376,0.118c0.358,0.114 0.715,0.23 1.07,0.348l0.056,0.018c3.712,1.241 7.307,2.738 10.763,4.471l0.053,0.022c18.7,9.389 33.337,25.681 40.566,45.533l0.003,0.002l0,0c0.167,0.122 0.333,0.245 0.498,0.37l0.003,0.002c0.161,0.122 0.321,0.245 0.48,0.368l0.022,0.017c0.158,0.124 0.316,0.248 0.473,0.374l0.007,0.005c0.158,0.127 0.316,0.255 0.473,0.384l0.016,0.014c0.153,0.126 0.305,0.253 0.456,0.381l0.023,0.02c0.147,0.125 0.293,0.25 0.438,0.378l0.035,0.031c0.149,0.13 0.297,0.262 0.444,0.394l0.016,0.014c0.144,0.13 0.287,0.261 0.43,0.393l0.04,0.037c0.136,0.126 0.272,0.254 0.407,0.382l0.044,0.042c0.137,0.131 0.274,0.263 0.409,0.396l0.034,0.033c0.133,0.131 0.266,0.263 0.397,0.395l0.06,0.06c0.123,0.124 0.245,0.249 0.366,0.375l0.065,0.068c0.121,0.126 0.24,0.252 0.36,0.379l0.069,0.074c0.115,0.124 0.23,0.249 0.344,0.374l0.095,0.104c0.107,0.118 0.214,0.237 0.32,0.357l0.087,0.098c0.105,0.12 0.21,0.24 0.314,0.361l0.095,0.111c0.102,0.119 0.203,0.239 0.304,0.359l0.106,0.128c0.099,0.119 0.197,0.239 0.294,0.358l0.099,0.122c0.094,0.117 0.188,0.234 0.28,0.352l0.109,0.139c5.262,6.724 8.571,15.049 9.073,24.124l0,0.005c0.012,0.212 0.022,0.425 0.031,0.638c0.004,0.095 0.008,0.191 0.011,0.286c0.003,0.089 0.006,0.178 0.008,0.267c0.005,0.172 0.009,0.345 0.012,0.517l0.001,0.07c0.003,0.212 0.005,0.424 0.005,0.637c0,0.163 -0.001,0.326 -0.003,0.489l0,0c-0.002,0.163 -0.005,0.325 -0.008,0.487l0,0c-0.004,0.162 -0.008,0.324 -0.014,0.486l0,0c-0.006,0.162 -0.012,0.323 -0.019,0.484l0,0c-0.007,0.161 -0.015,0.322 -0.024,0.482l0,0.001c-0.009,0.161 -0.019,0.321 -0.029,0.481l0,0.001c-0.011,0.16 -0.022,0.32 -0.035,0.48l0,0.001c-0.012,0.16 -0.026,0.319 -0.04,0.478l0,0.001c-0.014,0.159 -0.029,0.318 -0.045,0.476l0,0.001c-0.016,0.159 -0.033,0.317 -0.05,0.475l0,0.001c-0.017,0.158 -0.036,0.316 -0.055,0.473l0,0.002c-0.019,0.157 -0.039,0.314 -0.06,0.471l0,0.002c-0.021,0.157 -0.043,0.313 -0.065,0.469l0,0.002c-0.023,0.156 -0.046,0.312 -0.07,0.468l0,0.002c-0.024,0.156 -0.049,0.311 -0.075,0.466l0,0.002c-0.026,0.155 -0.053,0.31 -0.08,0.464l0,0.002c-0.028,0.155 -0.056,0.309 -0.085,0.463l0,0.002c-0.029,0.154 -0.06,0.307 -0.09,0.461l0,0.002c-0.031,0.153 -0.063,0.306 -0.095,0.459l-0.001,0.002c-0.032,0.153 -0.066,0.305 -0.1,0.457l0,0.002c-0.034,0.152 -0.069,0.304 -0.105,0.455l-0.001,0.003c-0.036,0.151 -0.072,0.302 -0.11,0.453l-0.001,0.003c-0.037,0.15 -0.076,0.301 -0.114,0.451l-0.001,0.002c-0.039,0.15 -0.079,0.3 -0.119,0.449l-0.001,0.003c-0.04,0.149 -0.082,0.298 -0.124,0.447l-0.001,0.002c-0.042,0.149 -0.085,0.297 -0.128,0.445l-0.001,0.003c-0.043,0.148 -0.088,0.295 -0.133,0.443l-0.001,0.003c-0.045,0.147 -0.091,0.294 -0.138,0.441l-0.001,0.003c-0.047,0.146 -0.094,0.293 -0.142,0.438l-0.001,0.003c-0.048,0.146 -0.097,0.291 -0.147,0.436c-0.044,0.127 -0.088,0.253 -0.132,0.38l-0.02,0.057l-0.001,0.003c-0.051,0.144 -0.103,0.288 -0.156,0.432l-0.001,0.003c-0.052,0.144 -0.106,0.287 -0.16,0.429l-0.001,0.003c-0.054,0.143 -0.109,0.285 -0.165,0.427l-0.001,0.003c-0.056,0.142 -0.112,0.284 -0.169,0.425l-0.001,0.004c-0.057,0.141 -0.115,0.282 -0.173,0.422l-0.002,0.004c-0.058,0.14 -0.118,0.28 -0.178,0.42l-0.002,0.004c-0.06,0.139 -0.121,0.279 -0.182,0.418l-0.002,0.004c-0.061,0.139 -0.123,0.277 -0.186,0.415l-0.002,0.004c-0.063,0.138 -0.126,0.276 -0.19,0.413c-0.103,0.219 -0.208,0.438 -0.314,0.655c-0.028,0.057 -0.056,0.115 -0.083,0.172l-0.002,0.004c-0.067,0.136 -0.135,0.271 -0.203,0.405l-0.002,0.004c-0.069,0.135 -0.137,0.269 -0.207,0.403c-0.07,0.135 -0.141,0.27 -0.213,0.405l-0.002,0.004c-0.071,0.133 -0.143,0.265 -0.215,0.397l-0.003,0.005c-0.072,0.132 -0.145,0.264 -0.219,0.395l-0.002,0.005c-0.074,0.131 -0.148,0.262 -0.223,0.392c-0.052,0.089 -0.103,0.178 -0.155,0.267c-0.025,0.043 -0.049,0.085 -0.074,0.128l-0.003,0.005c-0.077,0.129 -0.154,0.258 -0.231,0.386c-0.214,0.354 -0.433,0.705 -0.657,1.051c-0.023,0.036 -0.046,0.071 -0.069,0.107l-0.003,0.005c-0.082,0.126 -0.164,0.251 -0.247,0.376l-0.003,0.005c-0.083,0.124 -0.166,0.249 -0.25,0.373l-0.003,0.005c-0.084,0.124 -0.169,0.247 -0.254,0.37c-0.146,0.21 -0.294,0.418 -0.443,0.625c-0.028,0.039 -0.056,0.078 -0.083,0.116l-0.004,0.005c-0.088,0.121 -0.176,0.241 -0.265,0.361l-0.004,0.005c-0.089,0.12 -0.179,0.239 -0.269,0.358l-0.004,0.005c-0.09,0.119 -0.181,0.237 -0.272,0.355l-0.004,0.005c-0.092,0.118 -0.183,0.235 -0.276,0.352c-0.182,0.23 -0.367,0.458 -0.554,0.685l-0.021,0.026l-0.001,0.002c0,-7.067 -2.271,-13.602 -6.121,-18.919c-3.662,-5.359 -8.65,-9.153 -14.144,-11.06c-3.718,-1.494 -7.778,-2.317 -12.03,-2.317c-11.87,0 -22.243,6.405 -27.855,15.947l6.489,1.763l-6.489,-1.764c-2.695,4.678 -4.933,9.654 -6.653,14.864l0.002,-0.001l0.002,0.002c-1.86,5.588 -2.869,11.564 -2.869,17.777c0,31.069 25.186,56.255 56.255,56.255c2.331,0 4.628,-0.145 6.885,-0.42l0.018,0.022c3.259,-0.422 6.476,-0.984 9.643,-1.676l0.005,-0.029c50.619,-11.186 88.784,-56.553 88.784,-110.409c-0.015,-62.185 -50.891,-113.06 -113.072,-113.06" id="svg_37"/>
      </defs>
      <clipPath id="svg_35">
       <use id="svg_43" overflow="visible" xlink:href="#svg_37"/>
      </clipPath>
      <rect id="svg_44" stroke-width="0" fill="url(#svg_36)" clip-path="url(#svg_35)" height="225.568" width="239.118" y="34" x="20.506"/>
     </g>
     <defs>
      <filter height="134.777" width="153.932" y="124.791" x="20.506" filterUnits="userSpaceOnUse" id="svg_29"/>
     </defs>
     <mask id="svg_23" height="134.777" width="153.932" y="124.791" x="20.506" maskUnits="userSpaceOnUse">
      <g id="svg_45" filter="url(#svg_29)">
       <rect id="svg_46" stroke-width="0" fill="#FFFFFF" height="128.969" width="147.62" y="130.599" x="20.506"/>
       <g id="svg_47">
        <g id="svg_48">
         <g id="svg_49">
          <defs>
           <rect stroke-width="0" height="128.969" width="147.62" y="130.599" x="20.506" id="svg_34"/>
          </defs>
          <clipPath id="svg_32">
           <use id="svg_50" overflow="visible" xlink:href="#svg_34"/>
          </clipPath>
          <g id="svg_51">
           <g id="svg_52">
            <defs>
             <rect stroke-width="0" height="129.086" width="147.735" y="130.483" x="20.506" id="svg_33"/>
            </defs>
            <clipPath clip-path="url(#svg_32)" id="svg_30">
             <use id="svg_53" overflow="visible" xlink:href="#svg_33"/>
            </clipPath>
            <rect id="svg_54" stroke-width="0" fill="url(#svg_31)" clip-path="url(#svg_30)" height="129.086" width="147.736" y="130.483" x="20.506"/>
           </g>
          </g>
         </g>
        </g>
       </g>
      </g>
     </mask>
     <g id="svg_55" mask="url(#svg_23)">
      <g id="svg_56">
       <defs>
        <rect stroke-width="0" height="128.969" width="147.62" y="130.599" x="20.506" id="svg_28"/>
       </defs>
       <clipPath id="svg_24">
        <use id="svg_57" overflow="visible" xlink:href="#svg_28"/>
       </clipPath>
       <g id="svg_58" clip-path="url(#svg_24)">
        <defs>
         <path stroke-width="0" d="m20.506,160.104l0,99.464l133.784,0c-31.069,0 -56.255,-25.186 -56.255,-56.255c0,-6.212 1.01,-12.189 2.869,-17.777l-0.002,-0.002l-0.002,0.001c1.72,-5.211 3.958,-10.186 6.653,-14.864l0,0c5.612,-9.542 15.985,-15.947 27.855,-15.947c4.252,0 8.312,0.824 12.03,2.317c5.494,1.907 10.483,5.701 14.144,11.06c3.85,5.317 6.121,11.852 6.121,18.919c6.735,-57.399 -68.628,-62.229 -108.361,-40.993l7.044,-15.429c-12.2,4.996 -29.349,15.744 -45.88,29.506" id="svg_27"/>
        </defs>
        <clipPath id="svg_25">
         <use id="svg_59" overflow="visible" xlink:href="#svg_27"/>
        </clipPath>
        <rect id="svg_60" stroke-width="0" fill="url(#svg_26)" clip-path="url(#svg_25)" height="134.777" width="153.932" y="124.791" x="20.506"/>
       </g>
      </g>
     </g>
     <g id="svg_61">
      <defs>
       <path stroke-width="0" d="m83.611,259.568l70.679,0c-31.069,0 -56.255,-25.186 -56.255,-56.255c0,-6.212 1.01,-12.189 2.869,-17.777l-0.002,-0.002l-0.002,0.001c1.72,-5.211 3.958,-10.186 6.653,-14.864l0,0c5.612,-9.542 15.985,-15.947 27.855,-15.947c-0.697,-0.033 -1.388,-0.052 -2.075,-0.058l-0.033,0c-43.722,-0.365 -67.922,52.798 -55.342,80.246l-8.385,-7.547c-1.46,10.434 4.741,21.713 14.038,32.203" id="svg_22"/>
      </defs>
      <clipPath id="svg_20">
       <use id="svg_62" overflow="visible" xlink:href="#svg_22"/>
      </clipPath>
      <rect id="svg_63" stroke-width="0" fill="url(#svg_21)" clip-path="url(#svg_20)" height="105.267" width="88.913" y="154.302" x="65.377"/>
     </g>
     <g id="svg_64">
      <defs>
       <path stroke-width="0" d="m133.949,154.676c0.091,0.002 0.182,0.004 0.272,0.007l-0.272,-0.007zm-113.443,104.892l63.105,0c-9.297,-10.49 -15.499,-21.769 -14.04,-32.202l8.385,7.547c-12.58,-27.448 11.62,-80.611 55.342,-80.246c-27.226,-0.323 -65.863,17.109 -76.808,41.674l1.336,-14.088c0,0 -22.434,22.89 -37.32,47.001l0,30.314z" id="svg_19"/>
      </defs>
      <clipPath id="svg_17">
       <use id="svg_65" overflow="visible" xlink:href="#svg_19"/>
      </clipPath>
      <rect id="svg_66" stroke-width="0" fill="url(#svg_18)" clip-path="url(#svg_17)" height="105.267" width="113.714" y="154.302" x="20.506"/>
     </g>
     <g id="svg_67">
      <defs>
       <path stroke-width="0" d="m20.506,160.104c16.531,-13.762 33.68,-24.51 45.879,-29.505l-7.044,15.429c26.62,-14.228 69.23,-16.753 92.432,0.391c5.264,3.904 7.74,7.494 8.263,8.068c-9.013,-11.777 -28.37,-14.652 -41.61,-15.755c-29.013,-2.418 -69.263,19.286 -69.263,19.286l4.66,-14.698l-33.317,16.784z" id="svg_16"/>
      </defs>
      <clipPath id="svg_14">
       <use id="svg_68" overflow="visible" xlink:href="#svg_16"/>
      </clipPath>
      <rect id="svg_69" stroke-width="0" fill="url(#svg_15)" clip-path="url(#svg_14)" height="30.829" width="139.531" y="129.275" x="20.506"/>
     </g>
     <g id="svg_70">
      <defs>
       <path stroke-width="0" d="m20.506,252.357l0,-23.103c14.886,-24.112 37.32,-47.001 37.32,-47.001l-1.336,14.088c7.815,-17.54 29.749,-31.441 51.566,-37.841c-22.041,7.859 -44.589,34.511 -54.936,55.073l-1.424,-14.741c0,0 -3.104,4.846 -10.483,17.425c-7.378,12.576 -20.707,36.1 -20.707,36.1" id="svg_13"/>
      </defs>
      <clipPath id="svg_11">
       <use id="svg_71" overflow="visible" xlink:href="#svg_13"/>
      </clipPath>
      <rect id="svg_72" stroke-width="0" fill="url(#svg_12)" clip-path="url(#svg_11)" height="93.858" width="87.551" y="158.499" x="20.506"/>
     </g>
     <g id="svg_73">
      <defs>
       <path stroke-width="0" d="m101.517,259.568l-17.906,0c-9.297,-10.49 -15.499,-21.769 -14.04,-32.202l8.385,7.547c-11.286,-24.624 7.033,-69.935 42.489,-78.737c-29.853,13.631 -45.699,66.982 -26.237,89.261l-11.907,-2.18c0,-0.001 4.889,8.894 19.216,16.311z" id="svg_10"/>
      </defs>
      <clipPath id="svg_8">
       <use id="svg_74" overflow="visible" xlink:href="#svg_10"/>
      </clipPath>
      <rect id="svg_75" stroke-width="0" fill="url(#svg_9)" clip-path="url(#svg_8)" height="103.393" width="53.774" y="156.176" x="66.671"/>
     </g>
     <g id="svg_76">
      <defs>
       <path stroke-width="0" d="m227.336,225.956c-15.138,15.489 -34.656,26.682 -56.496,31.509l-0.005,0.029c-3.167,0.693 -6.383,1.254 -9.643,1.676l-0.018,-0.022c-2.257,0.275 -4.554,0.42 -6.885,0.42c-31.069,0 -56.255,-25.186 -56.255,-56.255c0,-6.212 1.01,-12.189 2.869,-17.776l-0.002,-0.002l-0.002,0.001c1.72,-5.211 3.958,-10.186 6.653,-14.864l0.001,0c5.612,-9.542 15.985,-15.947 27.855,-15.947c4.252,0 8.312,0.824 12.03,2.317c5.494,1.907 10.483,5.701 14.144,11.06c1.242,1.715 2.319,3.557 3.209,5.503c-31.308,-34.678 -57.152,1.5 -55.693,28.221c3.514,64.337 82.865,59.672 118.238,24.13zm2.344,-2.464c-0.074,0.08 -0.147,0.159 -0.221,0.239c0.074,-0.08 0.149,-0.159 0.221,-0.239z" id="svg_7"/>
      </defs>
      <clipPath id="svg_5">
       <use id="svg_77" overflow="visible" xlink:href="#svg_7"/>
      </clipPath>
      <rect id="svg_78" stroke-width="0" fill="url(#svg_6)" clip-path="url(#svg_5)" height="127.236" width="131.646" y="138.927" x="98.035"/>
     </g>
     <g id="svg_79">
      <defs>
       <path stroke-width="0" d="m131.984,110.221c-0.48,0 -7.386,1.055 -7.386,1.055l-16.69,-11.031c6.143,1.017 21.468,3.454 24.076,9.976z" id="svg_4"/>
      </defs>
      <clipPath id="svg_2">
       <use id="svg_80" overflow="visible" xlink:href="#svg_4"/>
      </clipPath>
      <rect id="svg_81" stroke-width="0" fill="url(#svg_3)" clip-path="url(#svg_2)" height="11.031" width="24.076" y="100.245" x="107.908"/>
     </g>
    </g>
   </svg>
  </g>
  <g style="cursor: move; opacity: 1;" transform="translate(134.0800018310547,55.591304779052734) scale(1) " id="shape_RwMyvYnIc6">
   <svg y="-153" x="-227" id="svg_82" data-parent="shape_RwMyvYnIc6" viewBox="0 0 717.6800000000001 679.35112" height="679.35112" width="717.68" version="1.1" xmlns:xlink="http://www.w3.org/1999/xlink" xmlns="http://www.w3.org/2000/svg">
    <g id="svg_83" data-width="345.01196">
     <path id="svg_84" data-glyph-descender="-24.71672" data-glyph-ascender="96.91556" data-glyph-h="121.63228" data-glyph-w="60.398" stroke-width="0.155" stroke="rgb(49, 49, 49)" fill="rgb(49, 49, 49)" d="m148.334017,352.075568l0,0q-2.23,9.48 -8.41,14.17q-6.18,4.69 -13.38,5.95q-7.21,1.25 -16.4,1.25l0,0q-3.72,0 -8,-0.19l0,0q-1.48,-0.09 -3.62,-0.09l0,0q-0.09,-0.28 0.37,-10.78l0,0q1.3,-26.67 1.3,-40.51l0,0q0,-5.58 -0.28,-8.18l0,0q5.49,-2.32 10.6,-3.53l0,0l0,3.44q0,1.95 0.09,2.42l0,0q1.39,-1.49 4.88,-2.47q3.48,-0.97 7.57,-0.97l0,0q2.88,0 5.67,0.55l0,0q10.13,2.14 15.66,9.06q5.53,6.93 5.53,17.71l0,0q0,5.39 -1.58,12.17l0,0zm-17.57,-34.2l0,0q0,0.28 -0.09,0.38q-0.09,0.09 0.09,0.46l0,0q0.93,1.77 2.23,2.04l0,0l0.28,-1.11l-1.58,-1.77l-0.93,0zm5.3,28.99l0,0q0.56,-2.78 0.56,-5.38l0,0q0,-5.86 -2.56,-10.55q-2.55,-4.69 -6.78,-7.34q-4.23,-2.65 -9.06,-2.65l0,0q-3.53,0 -6.97,1.58l0,0q0,2.97 -0.56,18.96l0,0q-0.09,3.53 -0.37,11.66q-0.28,8.13 -0.28,11.66l0,0q2.79,0.56 5.48,0.56l0,0q7.81,0 13.25,-4.65q5.43,-4.65 7.29,-13.85l0,0zm0.46,13.2l0,0q0.19,-0.37 0.75,-1.35q0.56,-0.97 0.83,-1.9q0.28,-0.93 0.28,-1.95l0,0q0,-0.93 -0.09,-1.4l0,0q-0.74,1.4 -2,3.81q-1.25,2.42 -1.16,2.6l0,0q0.09,0.38 0.37,0.42q0.28,0.05 0.56,0.23l0,0q0.09,-0.18 0.14,-0.27q0.05,-0.1 0.32,-0.19l0,0zm3.16,-31.78l0.28,0.74l0.19,0l-0.47,-0.74z"/>
     <path id="svg_85" data-glyph-descender="-24.71672" data-glyph-ascender="96.91556" data-glyph-h="121.63228" data-glyph-w="60.398" stroke-width="0.155" stroke="rgb(49, 49, 49)" fill="rgb(49, 49, 49)" d="m155.482016,312.115568l0,0q1.21,-0.65 3.91,-1.25q2.69,-0.61 4.73,-0.61l0,0q2.05,0 2.7,0.75l0,0q1.11,1.86 5.11,12.45q3.99,10.59 7.8,21.6q3.81,11.01 3.81,11.66l0,0q3.81,-14.21 8.55,-29.13q4.74,-14.91 5.76,-16.58l0,0q3.72,-0.37 6.04,-0.37l0,0q4,0 6.42,0.83l0,0q0.37,0.65 0.37,2.05l0,0q0,1.2 -0.1,1.95l0,0q0,0.65 -0.04,2.18q-0.05,1.53 0.04,2.84l0,0q0.1,1.3 -0.09,11.7l0,0q-0.28,17.29 -0.28,19.33l0,0q0,17.93 1.58,20.26l0,0q-0.09,1.3 -3.39,2.41q-3.3,1.12 -6.09,1.12l0,0q-2.04,0 -2.23,-0.75l0,0q0.56,1.21 0.84,-17.51q0.28,-18.72 0.28,-28.85l0,0q-0.47,1.86 -4.18,13.19l0,0q-4.56,13.75 -7.06,21.98q-2.51,8.22 -2.51,10.45l0,0q0,0.56 -1.3,0.93q-1.3,0.37 -3.16,0.37l0,0q-4.18,0 -5.76,-1.3l0,0q-0.28,-4.27 -1.91,-9.99q-1.63,-5.71 -5.06,-16.4l0,0q-2.88,-8.83 -4.14,-13.33q-1.25,-4.51 -1.35,-7.11l0,0l0.66,47.2q-0.38,0.28 -1.31,0.28l0,0q-1.58,0 -7.24,-1.48l0,0l-1.95,-0.56q-0.1,-0.1 -0.1,-0.75l0,0q0,-1.3 0.56,-4.46l0,0q0.46,-2.13 0.46,-3.06l0,0l0.1,-14.13q0.18,-10.59 0.18,-16.35l0,0q0,-12.45 -0.65,-21.56l0,0zm46.65,3.63l0,0q-0.09,0.46 -0.23,1.02q-0.14,0.56 -0.14,0.93l0,0q0,0.56 0.37,1.3l0,0q0.09,-0.74 0.23,-1.26q0.14,-0.51 0.14,-0.88l0,0q0,-0.37 -0.37,-1.11l0,0zm1.49,2.51l0,0q-0.1,0.09 -0.28,0.27q-0.19,0.19 -0.1,0.28q0.1,0.1 0.38,0.19l0,0q0.09,-0.19 0.27,-0.33q0.19,-0.14 0.1,-0.23q-0.1,-0.09 -0.37,-0.18l0,0zm-43.77,37.07l0,0q0,3.25 0.14,5.48q0.14,2.23 0.7,3.72l0,0q0,-3.53 -0.14,-5.76q-0.14,-2.23 -0.7,-3.44l0,0z"/>
     <path id="svg_86" data-glyph-descender="-24.71672" data-glyph-ascender="96.91556" data-glyph-h="121.63228" data-glyph-w="41.814" stroke-width="0.155" stroke="rgb(49, 49, 49)" fill="rgb(49, 49, 49)" d="m247.570014,365.735568l0,0q0.93,1.02 1.58,2.83q0.65,1.81 0.93,3.53q0.28,1.72 0.18,2l0,0q-6.04,-0.37 -12.63,-0.37l0,0q-8.55,0 -15.24,0.56l0,0q-0.93,0 -2.05,-1.68q-1.11,-1.67 -1.76,-3.53q-0.65,-1.86 -0.19,-1.95l0,0l4.18,-0.28q7.44,-0.18 7.44,-0.74l0,0l0.28,-7.16q0.92,-20.72 0.92,-30.29l0,0q0,-7.25 -0.55,-8.17l0,0q0,-0.1 -1.86,0.09l0,0q-2.23,0.18 -3.72,0.18l0,0q-1.86,0 -2.41,-0.27l0,0q-1.03,-1.03 -2.14,-3.26q-1.12,-2.23 -1.49,-3.81l0,0q1.49,0.1 4.65,0.1l0,0q6.87,0 14.17,-0.65q7.29,-0.65 10.73,-1.49l0,0q0.93,0.65 1.81,2.93q0.89,2.27 1.44,4.78l0,0q-0.65,0.09 -2.46,0.23q-1.81,0.14 -2.93,0.24l0,0q-5.2,0.18 -6.69,0.46l0,0q0.28,0.56 0.28,7.53l0,0q0,0.09 -0.28,23.23l0,0l-0.18,14.31q0.46,0.09 3.34,0.28l0,0q3.81,0.18 4.65,0.37l0,0zm-12.82,-13.75l0,0q-0.28,-0.38 -0.42,-0.93q-0.14,-0.56 -0.24,-0.84l0,0l-0.65,-0.28q-0.09,0.09 -0.23,0.14q-0.14,0.05 -0.23,0.14l0,0q-0.09,0 -0.05,0.09q0.05,0.1 -0.04,0.28l0,0q0,0.47 0.14,0.93q0.14,0.47 0.23,0.93l0,0q0.46,0.09 0.7,0.09q0.23,0 0.51,-0.18l0,0l0.28,-0.37zm1.11,5.01l0,0q0.19,-0.09 0.19,-0.23q0,-0.14 0,-0.32l0,0q-0.93,0.09 -1.4,0.23q-0.46,0.14 -0.93,0.69l0,0q0.28,-0.09 1.12,-0.13q0.83,-0.05 1.02,-0.24l0,0zm-3.9,-35.68l0.56,0l0,-0.37l-0.56,0.37z"/>
     <path id="svg_87" data-glyph-descender="-24.71672" data-glyph-ascender="96.91556" data-glyph-h="121.63228" data-glyph-w="56.95996" stroke-width="0.155" stroke="rgb(49, 49, 49)" fill="rgb(49, 49, 49)" d="m265.504017,330.515568l0,0q3.99,-10.68 13.66,-15.28q9.66,-4.6 24.16,-4.6l0,0q1.76,2.32 3.02,5.94q1.25,3.63 1.25,6.04l0,0q0,2.14 -1.02,2.51l0,0q-1.3,-1.58 -5.58,-2.74q-4.27,-1.16 -7.99,-1.16l0,0q-2.04,0 -3.25,0.46l0,0q-7.53,2.88 -11.34,8.55q-3.81,5.67 -3.81,12.45l0,0q0,5.95 2.84,11.25q2.83,5.29 8.08,8.59q5.25,3.3 12.22,3.3l0,0q6.6,0 13.38,-2.88l0,0q-1.49,5.2 -7.15,8.36q-5.67,3.16 -12.64,3.16l0,0q-6.04,0 -10.87,-2.23l0,0q-8.74,-3.9 -13.2,-11.1q-4.46,-7.2 -4.46,-16.22l0,0q0,-7.43 2.7,-14.4l0,0zm21.37,-15.98l0,0q-0.28,0.93 -0.37,1.86l0,0q0.56,0.18 1.11,0.18l0,0q0.65,-0.55 2.51,-0.55l0,0q0.28,-0.38 0.47,-1.03l0,0q-0.75,-0.37 -1.58,-0.46l0,0q-0.19,-0.09 -0.61,-0.19q-0.42,-0.09 -0.79,-0.18l0,0q-0.28,0.28 -0.74,0.37l0,0zm-16.08,31.31l0,0q-0.09,0.19 -0.23,0.51q-0.14,0.33 -0.23,1.07l0,0l0.46,0q0.28,0.19 0.75,0.28l0,0q0.28,-0.65 0.37,-1.3l0,0l-0.37,-0.56l-0.75,0zm32.99,21.28l0,0q0.28,-0.28 0.84,-0.56l0,0l0,-0.27l-0.56,0q0.09,-0.1 -1.02,0.83l0,0l0.74,0zm-10.41,3.25l0,0q0,0.19 -0.04,0.33q-0.05,0.14 0.04,0.51l0,0l0.75,0.19l0.18,-0.84q-0.18,0 -0.18,-0.19l0,0l-0.75,0z"/>
     <path id="svg_88" data-glyph-descender="-24.71672" data-glyph-ascender="96.91556" data-glyph-h="121.63228" data-glyph-w="60.398" stroke-width="0.155" stroke="rgb(49, 49, 49)" fill="rgb(49, 49, 49)" d="m353.493978,350.305568l0,0q2.42,5.95 5.07,10.5q2.65,4.56 8.22,10.41l0,0q-5.11,2.32 -8.13,3.48q-3.02,1.17 -4.51,1.17l0,0q-0.83,0 -1.11,-0.19l0,0q-1.4,-0.74 -3.63,-7.43q-2.23,-6.69 -3.76,-13.62q-1.53,-6.92 -0.97,-7.2l0,0q-4.19,1.3 -10.78,1.3l0,0q-2.7,0 -4.56,-0.18l0,0q-0.09,5.57 -0.41,13.52q-0.33,7.94 -0.61,11.29l0,0q-1.48,0.18 -4.37,0.93l0,0q-4.27,1.11 -5.11,0.83l0,0q1.21,-22.48 1.21,-53.33l0,0l0,-7.9q0.56,-0.75 3.53,-1.67q2.98,-0.93 5.76,-1.58l0,0q0.19,-0.1 0,2.04l0,0l-0.09,2.23q0,0.84 0.14,1.21q0.14,0.37 0.42,0.09l0,0q6.32,-5.85 15.79,-5.85l0,0q3.35,0 6.46,0.79q3.12,0.79 5.35,2.09l0,0q4.27,2.51 6.45,6.5q2.19,4 2.19,8.64l0,0q0,6.32 -3.81,11.48q-3.81,5.16 -10.41,6.46l0,0l1.67,3.99zm-7.8,-34.75l0,0q0,0 -0.47,0.47l0,0l2.88,0q0.19,-0.19 0.28,-0.14q0.1,0.04 0.19,-0.33l0,0l-2.88,0zm-16.08,26.3l0,0q1.12,0.18 2.14,0.18l0,0q3.44,0 7.94,-1.02q4.51,-1.02 8.23,-3.02q3.71,-2 4.83,-4.88l0,0q2.14,-3.34 2.14,-6.32l0,0q0,-4.18 -3.77,-6.73q-3.76,-2.56 -8.96,-2.56l0,0q-3.63,0 -6.88,1.35q-3.25,1.35 -5.48,4.04l0,0q-0.28,0.37 -0.47,3.39q-0.18,3.02 -0.18,6.65l0,0q0,6.97 0.46,8.92l0,0zm-6.87,19.05l0,0q0,3.25 0.14,5.48q0.14,2.23 0.69,3.71l0,0q0,-3.53 -0.14,-5.76q-0.14,-2.23 -0.69,-3.43l0,0zm29.64,8.17l0,0q0.83,2.33 2.32,2.6l0,0q0.28,-0.37 0.37,-1.3l0,0q-0.37,-0.18 -1.11,-0.65q-0.75,-0.46 -1.58,-0.65l0,0z"/>
     <path id="svg_89" data-glyph-descender="-24.71672" data-glyph-ascender="96.91556" data-glyph-h="121.63228" data-glyph-w="65.044" stroke-width="0.155" stroke="rgb(49, 49, 49)" fill="rgb(49, 49, 49)" d="m379.791973,328.935568l0,0q4.28,-8.92 11.66,-13.7q7.39,-4.79 15.57,-4.79l0,0q8.17,0 15.14,4.69q6.97,4.7 10.69,13.43l0,0q3.07,7.15 3.07,15.05l0,0q0,7.71 -3.07,14.45q-3.07,6.74 -8.78,11.34q-5.72,4.6 -13.52,5.9l0,0q-2.14,0.37 -4.65,0.37l0,0q-8.17,0 -14.91,-4.65q-6.74,-4.64 -10.55,-12.21q-3.81,-7.58 -3.81,-15.94l0,0q0,-7.34 3.16,-13.94l0,0zm26.95,-13.01l0,0q-0.19,0 -0.56,0.19q-0.37,0.18 -0.46,0.37l0,0l4.46,0l0.37,-0.37l0,-0.19l-3.81,0zm1.3,51.02l0,0q4.27,-0.65 7.48,-4.37q3.2,-3.72 4.83,-9.29q1.63,-5.58 1.63,-11.62l0,0q0,-5.95 -1.68,-11.01q-1.67,-5.06 -5.06,-7.94q-3.39,-2.88 -8.32,-2.51l0,0q-5.76,0.46 -9.85,4.04q-4.08,3.58 -6.13,9.06q-2.04,5.48 -2.04,11.52l0,0q0,5.85 1.9,10.97q1.91,5.11 5.67,8.22q3.76,3.11 9.06,3.11l0,0q0.84,0 2.51,-0.18l0,0zm-25.93,-27.79l0,0q0,3.25 0.14,5.48q0.14,2.23 0.7,3.72l0,0q0,-3.53 -0.14,-5.76q-0.14,-2.23 -0.7,-3.44l0,0zm37.08,23.14l0,0q-0.19,0.19 -0.65,0.32q-0.47,0.14 -0.74,0.24l0,0l1.2,0.09q1.21,0 1.58,-0.65l0,0l-1.39,0z"/>
    </g>
   </svg>
  </g>
 </g>
</svg>